<?xml version="1.0" standalone="no"?>
<!DOCTYPE svg PUBLIC "-//W3C//DTD SVG 1.1//EN" "http://www.w3.org/Graphics/SVG/1.1/DTD/svg11.dtd" >
<svg xmlns="http://www.w3.org/2000/svg">
<metadata></metadata>
<defs>
<font id="supermarketregular" horiz-adv-x="0" >
<font-face units-per-em="2048" ascent="1638" descent="-410" />
<missing-glyph horiz-adv-x="639" />
<glyph unicode="&#x3b;&#x3b;For&#x20;Education&#x20;Used&#x20;Only&#x3b;&#x3b;" horiz-adv-x="1430" d="M108 637q0 127 47.5 236.5t129.5 192.5q82 82 191.5 129.5t235.5 47.5t235.5 -47.5t191.5 -129.5q83 -83 130 -192.5t47 -236.5q0 -125 -47 -234.5t-130 -191.5q-82 -82 -191.5 -129.5t-235.5 -47.5t-235.5 47.5t-191.5 129.5t-129.5 191.5t-47.5 234.5zM225 637 q0 -100 37 -188.5t105 -155.5q67 -67 155 -105t190 -38q103 0 190.5 38t154.5 105t105 155.5t38 188.5q0 103 -38 191t-105 155t-154.5 105.5t-190.5 38.5q-102 0 -190 -38.5t-155 -105.5q-142 -140 -142 -346zM463 584q6 -64 34 -114q11 -21 29.5 -41.5t45 -37t61 -26 t80.5 -9.5q73 0 120 24.5t74.5 58t38.5 68.5t14 57h-93q-6 -45 -31 -69t-52 -35q-33 -13 -71 -15q-44 2 -78 17q-15 7 -28.5 16.5t-24 24.5t-17.5 35t-7 46v108q0 49 24 77t53 40q34 15 78 17q40 -2 71 -15q27 -11 52 -34t31 -66h93q-3 21 -14 56.5t-38.5 69.5t-74.5 59 t-120 25q-46 0 -80.5 -10t-61 -26t-45 -37t-29.5 -42q-28 -51 -34 -114v-108z" />
<glyph unicode="&#x3b;&#x3b;Registered&#x3b;&#x3b;" horiz-adv-x="1464" d="M136 637q0 127 47.5 236.5t128.5 192.5q82 82 192 129.5t235 47.5q127 0 236 -47.5t191 -129.5q83 -83 130.5 -192.5t47.5 -236.5q0 -125 -47.5 -234.5t-130.5 -191.5q-82 -82 -191 -129.5t-236 -47.5q-125 0 -235 47.5t-192 129.5q-81 82 -128.5 191.5t-47.5 234.5z M252 637q0 -100 37.5 -188.5t104.5 -155.5t155 -105t190 -38q103 0 190.5 38t154.5 105t105 155.5t38 188.5q0 103 -38 191t-105 155t-154.5 105.5t-190.5 38.5q-102 0 -190 -38.5t-155 -105.5q-142 -140 -142 -346zM549 357h74v248h152q24 0 40 -8.5t25 -20.5t13 -25t5 -21 v-173h73v173q0 49 -14.5 77t-33.5 43q22 20 35 49t13 63t-13 62.5t-35 50t-51.5 33.5t-63.5 12h-219v-563zM623 672v180h145q37 0 63.5 -26t26.5 -64t-26.5 -64t-63.5 -26h-145z" />
<glyph unicode="&#x3b;&#x3b;Trademark&#x3b;&#x3b;" horiz-adv-x="1548" d="M130 1252v105h634l232 -525l226 525h100v-806h-110v502l-168 -387h-102l-171 387v-502h-110v701h-210v-699h-109v699h-212z" />
<glyph unicode="&#x3b;&#x3b;Multiply&#x3b;&#x3b;" horiz-adv-x="1109" d="M127 386l304 304l-304 306l134 134l305 -304l305 304l135 -134l-305 -306l305 -304l-135 -135l-305 305l-305 -305z" />
<glyph unicode="&#x3b;&#x3b;Divide&#x3b;&#x3b;" horiz-adv-x="1343" d="M156 558v181h1053v-181h-1053zM560 314q0 25 10 47.5t26 39t38.5 26t48.5 9.5q24 0 47 -9.5t39 -26t26 -39t10 -47.5t-10 -47t-26 -39t-39 -26.5t-47 -9.5q-26 0 -48.5 9.5t-38.5 26.5t-26 39t-10 47zM560 1009q0 25 10 47t26 38.5t38.5 26t48.5 9.5q24 0 47 -9.5t39 -26 t26 -38.5t10 -47q0 -26 -10 -48.5t-26 -39t-39 -26t-47 -9.5q-26 0 -48.5 9.5t-38.5 26t-26 39t-10 48.5z" />
<glyph unicode="&#x2018;&#x2018;" horiz-adv-x="720" d="M72 1040q-2 58 14 104t40.5 80.5t55 58t58.5 39.5t49 23.5t27 9.5q11 2 17 -1t9 -8q5 -6 6 -16q5 -21 -6 -34q-4 -6 -11 -10q-46 -23 -73 -44.5t-41 -38.5t-18 -28.5t-4 -13.5q25 0 48 -10t39.5 -26t26.5 -38.5t10 -46.5q0 -25 -10 -47t-26.5 -38.5t-39.5 -26t-48 -9.5 t-47.5 9.5t-38.5 26t-26 38.5t-11 47zM362 1040q-3 58 13 104t41 80.5t55.5 58t58 39.5t48.5 23.5t28 9.5q10 2 16 -1t10 -8q4 -6 5 -16q5 -21 -5 -34q-5 -6 -12 -10q-46 -23 -73 -44.5t-40.5 -38.5t-17.5 -28.5t-4 -13.5q25 0 47.5 -10t39.5 -26t26.5 -38.5t9.5 -46.5 q0 -25 -9.5 -47t-26.5 -38.5t-39.5 -26t-47.5 -9.5q-26 0 -48 9.5t-38.5 26t-26 38.5t-10.5 47z" />
<glyph unicode="&#x2019;&#x2019;" horiz-adv-x="759" d="M103 982q2 8 7 14q4 5 11 10q46 22 73 43.5t41 38.5t18 29t4 14q-26 0 -48.5 9.5t-39 26t-26.5 38.5t-10 47t10 47t26.5 38.5t39 26t48.5 9.5q24 0 47 -9.5t39 -26t26 -38.5t11 -47q1 -59 -14.5 -104.5t-40 -80t-55 -58.5t-58.5 -39.5t-49 -23t-27 -9.5q-11 -4 -17 -0.5 t-9 9.5q-5 5 -6 16q-3 12 -1 20zM392 982q2 8 7 14q4 5 11 10q47 22 74 43.5t40.5 38.5t17.5 29t4 14q-26 0 -48 9.5t-39 26t-26.5 38.5t-9.5 47t9.5 47t26.5 38.5t39 26t48 9.5q25 0 47.5 -9.5t39 -26t26 -38.5t10.5 -47q2 -59 -13.5 -104.5t-40.5 -80t-55.5 -58.5 t-58.5 -39.5t-48.5 -23t-27.5 -9.5q-10 -4 -16.5 -0.5t-9.5 9.5q-5 5 -6 16q-3 12 -1 20z" />
<glyph unicode="&#xe24;&#xe32;" horiz-adv-x="1565" d="M113 0v929q37 69 81 117.5t91 80.5t93 51t85 28.5t68 11.5t44 2h11q113 -3 191 -33.5t132 -77.5q13 13 37 32.5t59.5 37.5t82.5 30.5t104 12.5q7 0 33.5 -2t62.5 -11.5t76.5 -31t73.5 -61t55 -100.5t22 -150v-865h-182v865q-2 48 -18 87q-6 17 -16.5 32.5t-25 28 t-34.5 20t-46 7.5q-45 0 -76 -11t-51.5 -24.5t-31.5 -26.5t-17 -19q17 -37 26 -72t13 -63t5 -48t1 -26v-1282h-181v1282q0 73 -19.5 122t-50 81t-67.5 49t-69.5 25.5t-57 10t-31.5 1.5q-55 0 -97 -12.5t-73 -33t-51.5 -46.5t-34.5 -53q-32 -63 -36 -144v-581h112v-170h-293z " />
<glyph unicode="&#xe26;&#xe32;" horiz-adv-x="1692" d="M66 1v170h111v759q37 69 81.5 117.5t91.5 81t92.5 51t84.5 28t68.5 12t44.5 2.5h11q113 -4 191 -34.5t131 -77.5q13 13 37 32.5t59.5 37.5t82.5 30.5t105 12.5q6 0 32.5 -2t63 -11.5t76.5 -31t73.5 -61t55.5 -100.5t22 -150v-865h-182v865q-2 48 -18 87q-7 17 -17 32.5 t-25 28t-34.5 20t-45.5 7.5q-46 0 -77 -11t-51 -24.5t-31.5 -26.5t-17.5 -18q17 -38 26 -73t13 -63t5.5 -48t1.5 -25v-1283h-181v1283q0 72 -20 121t-50.5 81.5t-67 49.5t-69.5 25t-57 9.5t-31 1.5q-55 0 -97 -12.5t-73 -33t-52 -46.5t-35 -53q-31 -63 -36 -143v-752h-292z " />
<glyph unicode="&#xd;" horiz-adv-x="654" />
<glyph unicode=" "  horiz-adv-x="639" />
<glyph unicode="&#x09;" horiz-adv-x="639" />
<glyph unicode="&#xa0;" horiz-adv-x="639" />
<glyph unicode="!" horiz-adv-x="569" d="M150 1425h279l-63 -1425h-152zM153 -232q0 58 38 96q40 40 97 40q53 0 95 -40q40 -39 40 -96q0 -58 -39 -98t-96 -40t-97 40q-38 40 -38 98z" />
<glyph unicode="&#x22;" horiz-adv-x="649" d="M112 1357h181l-26 -448h-128zM354 1357h180l-26 -448h-127z" />
<glyph unicode="#" horiz-adv-x="1248" d="M98 401v170h206l56 235h-197v168h254l71 240h191l-71 -240h202l71 240h191l-71 -240h150v-169l-205 1l-57 -235h198v-170h-254l-71 -241h-191l71 241h-202l-72 -241h-191l72 241h-151zM495 571h203l57 235h-204z" />
<glyph unicode="$" horiz-adv-x="1123" d="M95 157l120 118q34 -33 97 -66t142 -49v477q-56 26 -108 60t-91.5 83t-64 117t-24.5 163q0 79 23 139.5t63 103t92.5 68.5t109.5 38v193h181v-187q60 -8 108.5 -24.5t83.5 -33.5q41 -20 74 -43l92 -63l-100 -152l-76 50q-38 26 -88 46t-94 32v-460q64 -29 128 -62.5 t115 -80.5t82.5 -112.5t31.5 -158.5v-11q0 -84 -27.5 -148t-75.5 -108t-113 -69.5t-141 -33.5v-188h-181v190q-95 13 -162 41t-111 58q-52 34 -86 73zM349 1060q0 -68 29 -113.5t76 -82.5v351q-47 -23 -76 -63t-29 -92zM635 156q81 17 126.5 66.5t45.5 119.5q0 42 -13 75 t-36.5 58.5t-55 45.5t-67.5 37v-402z" />
<glyph unicode="%" horiz-adv-x="1427" d="M138 1002q0 44 16.5 82.5t45 67.5t67 46t82.5 17t82.5 -17t67.5 -46t46 -67.5t17 -82.5t-17 -82.5t-46 -67t-67.5 -45t-82.5 -16.5t-82.5 16.5t-67 45t-45 67t-16.5 82.5zM279 1002q0 -29 20.5 -49.5t49.5 -20.5q30 0 50.5 20.5t20.5 49.5q0 31 -20.5 50.5t-50.5 19.5 q-29 0 -49.5 -19.5t-20.5 -50.5zM316 -210l599 1713h181l-600 -1713h-180zM851 290q0 44 16.5 82.5t45 67.5t67 45.5t82.5 16.5t82.5 -16.5t67.5 -45.5t45.5 -67.5t16.5 -82.5t-16.5 -82t-45.5 -67t-67.5 -45.5t-82.5 -16.5t-82.5 16.5t-67 45.5t-45 67t-16.5 82zM992 290 q0 -29 20.5 -49.5t49.5 -20.5q30 0 50.5 20.5t20.5 49.5q0 30 -20.5 50t-50.5 20q-29 0 -49.5 -20t-20.5 -50z" />
<glyph unicode="&#x26;" horiz-adv-x="1413" d="M92 331v18q0 32 4.5 62t15.5 58q12 37 30 70.5t41 63.5q23 31 50 60t57 55q31 28 63.5 54.5t62.5 50.5q-28 29 -52.5 58.5t-43.5 62.5q-19 29 -30.5 63.5t-14.5 70.5q-5 58 15 113q20 58 54 99q19 22 41 40t46 31t52.5 21t57.5 10q30 2 58.5 -1.5t54.5 -13.5 q26 -9 49.5 -23.5t42.5 -30.5q18 -17 35 -39t28 -46q25 -50 29 -103q6 -57 -7 -106q-8 -23 -17 -46t-24 -42q-26 -44 -62 -78q-19 -19 -39 -38t-39 -36l288 -327l148 171l133 -100l-169 -194q71 -81 147.5 -170t147.5 -170h-206l-198 224q-23 -24 -50 -48t-53 -46 q-26 -23 -53 -41.5t-54 -36.5q-27 -17 -55.5 -30.5t-58.5 -26.5q-29 -11 -58.5 -17t-60.5 -9q-9 -1 -19 -1.5t-19 -0.5q-53 0 -109 19q-35 13 -67 30.5t-59 40.5q-27 24 -50.5 52.5t-38.5 61.5q-34 65 -43 143q-1 9 -1 18zM261 336q10 -91 72 -155q64 -60 151 -53 q43 4 87 23t86 49q40 32 86 71t84 77l-302 342l-38 -30l-52 -41q-45 -35 -88 -81q-19 -22 -36 -45.5t-30 -47.5q-13 -26 -17.5 -53t-2.5 -56zM445 1084q2 -21 12 -43.5t24 -42.5q13 -19 28 -39t35 -41q22 21 45 43.5t45 45.5q42 45 37 113v1q-5 47 -39 80q-35 31 -82 28 q-44 -6 -77 -47q-33 -42 -28 -98z" />
<glyph unicode="'" horiz-adv-x="343" d="M78 1357h181l-26 -448h-128z" />
<glyph unicode="(" horiz-adv-x="753" d="M140 131v1128q0 109 45.5 191.5t120.5 138.5t171 85t198 31v-169q-61 0 -124 -16.5t-114 -50.5t-83.5 -86.5t-32.5 -123.5v-1128q0 -71 32.5 -128.5t84 -98t114.5 -62.5t123 -22v-169q-104 0 -201 35t-171 97.5t-118.5 151t-44.5 196.5z" />
<glyph unicode=")" horiz-adv-x="800" d="M114 -180q60 0 122.5 22t114 62.5t84.5 98t33 128.5v1128q0 71 -33 123.5t-83.5 86.5t-113.5 50.5t-124 16.5v169q102 -2 198 -31t171 -85t120.5 -138.5t45.5 -191.5v-1128q0 -108 -45 -196.5t-119 -151t-170.5 -97.5t-200.5 -35v169z" />
<glyph unicode="*" horiz-adv-x="812" d="M97 1137v137h144l-102 100l97 97l101 -100v142h136v-142l101 100l97 -97l-100 -100h142v-137h-142l100 -101l-97 -97l-101 102v-144h-136v144l-101 -102l-97 97l102 101h-144z" />
<glyph unicode="+" horiz-adv-x="1351" d="M197 520v181h405v405h181v-405h406v-181h-406v-406h-181v406h-405z" />
<glyph unicode="," horiz-adv-x="403" d="M56 -302l121 453h163l-121 -453h-163z" />
<glyph unicode="-" horiz-adv-x="936" d="M76 531v170h762v-170h-762z" />
<glyph unicode="." horiz-adv-x="492" d="M128 122q0 25 9.5 47t26 39t38.5 26.5t48 9.5q25 0 47 -9.5t39 -26.5t26.5 -39t9.5 -47q0 -26 -9.5 -48t-26.5 -38.5t-39 -26t-47 -9.5q-26 0 -48 9.5t-38.5 26t-26 38.5t-9.5 48z" />
<glyph unicode="/" horiz-adv-x="1136" d="M102 -394l731 2089h181l-732 -2089h-180z" />
<glyph unicode="0" horiz-adv-x="1127" d="M92 418v571q10 122 64 217q23 40 57 79t84 70.5t116 50t153 18.5q86 0 152 -18.5t116 -50t85 -70.5t57 -79q55 -95 65 -217v-571q-10 -123 -65 -218q-22 -41 -57 -80t-85 -69.5t-116 -49t-152 -18.5q-87 0 -153 18.5t-116 49t-84 69.5t-57 80q-54 95 -64 218zM272 418 q0 -50 12.5 -88t33.5 -66t47.5 -47t53.5 -32q65 -29 147 -32q83 3 147 32q27 13 53.5 32t47.5 47t33.5 66t12.5 88v571q0 47 -12.5 83.5t-33.5 63.5t-47.5 45t-53.5 30q-64 29 -147 32q-82 -3 -147 -32q-27 -12 -53.5 -30t-47.5 -45t-33.5 -63.5t-12.5 -83.5v-571z" />
<glyph unicode="1" horiz-adv-x="692" d="M99 942v181q7 0 31.5 1t57 9.5t69.5 25.5t67.5 49.5t50 81.5t19.5 121h181v-1411h-181v1032q-52 -38 -123.5 -62t-171.5 -28z" />
<glyph unicode="2" horiz-adv-x="1035" d="M98 0v170q177 179 314 342q59 69 115.5 142t101 140t72 126t27.5 99q0 47 -17.5 87.5t-48 71t-71.5 48t-87 17.5t-87 -17.5t-71.5 -48t-48 -71t-17.5 -87.5h-182q0 84 32 158t86.5 129t128.5 86.5t158 31.5q85 0 158 -31.5t128.5 -86.5t87.5 -129t32 -158q0 -62 -18 -119 t-49 -106q-106 -147 -201 -272q-41 -53 -82 -107.5t-78.5 -102.5t-68.5 -85t-52 -57h549v-170h-811z" />
<glyph unicode="3" horiz-adv-x="1061" d="M129 389h182q0 -47 17.5 -87.5t48 -71t71 -48t86.5 -17.5q47 0 87.5 17.5t71 48t48 71t17.5 87.5q0 45 -17 84.5t-47 69.5t-71 48t-89 21v182q47 0 87.5 17.5t71 48t48 71.5t17.5 87t-17.5 87t-48 71.5t-71 48t-87.5 17.5q-46 0 -86.5 -17.5t-71 -48t-48 -71.5t-17.5 -87 h-182q0 84 31.5 158t86.5 128.5t129 87t157 32.5q85 0 158.5 -32.5t129 -87t87 -128.5t31.5 -158q0 -96 -40 -177.5t-109 -137.5q69 -56 109.5 -137t40.5 -177q0 -84 -32 -158t-87 -129.5t-129 -87t-158 -31.5q-83 0 -157 31.5t-129.5 87t-87 129.5t-31.5 158z" />
<glyph unicode="4" horiz-adv-x="1177" d="M46 179v169l686 1064h180v-1064h165v-169h-165v-179h-181v179h-685zM264 348h468v732z" />
<glyph unicode="5" horiz-adv-x="1117" d="M107 550v864h848v-181h-667v-364q52 37 124 61t170 24q86 0 152 -19t115.5 -50t85 -70t57.5 -79q54 -95 65 -217v-100q-11 -123 -65 -218q-22 -41 -57.5 -80.5t-85 -70t-115.5 -49t-152 -18.5q-118 0 -198 33.5t-132.5 83t-82 107t-42.5 106.5h183q26 -56 71 -86t90 -44 q53 -16 111 -18q82 3 147 32q27 11 53.5 29.5t47.5 45t33.5 63.5t12.5 84v100q0 49 -12.5 87t-33.5 66.5t-47.5 47.5t-53.5 31q-65 30 -147 33q-76 -3 -138 -29q-26 -11 -52 -28t-47.5 -41.5t-36 -58t-19.5 -77.5h-182z" />
<glyph unicode="6" horiz-adv-x="1132" d="M93 419v100q1 21 5 46q4 21 11 49t20 61q2 4 5 11.5t13.5 30.5t31.5 68.5t57.5 126t93 202.5t138.5 298h178l-217 -474q64 16 138 16q86 0 152.5 -19t116.5 -50t84.5 -70t56.5 -79q55 -95 66 -217v-100q-11 -123 -66 -218q-22 -41 -56.5 -80.5t-84.5 -70t-116.5 -49 t-152.5 -18.5q-87 0 -153 18.5t-115.5 49t-84 70t-57.5 80.5q-54 95 -64 218zM273 419q0 -47 12.5 -83.5t33.5 -63t47.5 -45t53.5 -29.5q65 -28 147 -32q83 4 147 32q27 11 53.5 29.5t47.5 45t34 63t13 83.5v100q0 49 -13 87t-34 66.5t-47.5 47.5t-53.5 31q-64 30 -147 33 q-82 -3 -147 -33q-27 -12 -53.5 -31t-47.5 -47.5t-33.5 -66.5t-12.5 -87v-100z" />
<glyph unicode="7" horiz-adv-x="995" d="M60 1244v170h877v-170l-485 -1244h-181l485 1244h-696z" />
<glyph unicode="8" horiz-adv-x="1035" d="M116 389q0 96 41 177t109 137q-68 56 -109 137.5t-41 177.5q0 84 32 158t87 128.5t128.5 87t158.5 32.5q84 0 158 -32.5t128.5 -87t86.5 -128.5t32 -158q0 -96 -40.5 -177.5t-109.5 -137.5q69 -56 110 -137t41 -177q0 -84 -32.5 -158t-87 -129.5t-128.5 -87t-158 -31.5 t-158 31.5t-129 87t-87 129.5t-32 158zM298 389q0 -47 17.5 -87.5t48 -71t71.5 -48t87 -17.5t87.5 17.5t72 48t48 71t17.5 87.5q0 46 -17.5 86.5t-48 71t-72 48t-87.5 17.5t-87 -17.5t-71.5 -48t-48 -71t-17.5 -86.5zM298 1018q0 -46 17.5 -87t48 -71.5t71.5 -48t87 -17.5 t87 17.5t71.5 48t48 71.5t17.5 87t-17.5 87t-48 71.5t-71.5 48t-87 17.5t-87 -17.5t-71.5 -48t-48 -71.5t-17.5 -87z" />
<glyph unicode="9" horiz-adv-x="1166" d="M114 888v100q10 122 65 218q22 40 57 79t85 70.5t116 50t153 18.5q86 0 152 -18.5t115.5 -50t84 -70.5t57.5 -79q54 -96 64 -218v-100q-1 -21 -5 -46q-4 -22 -10.5 -50t-19.5 -60q-2 -4 -5 -11t-13.5 -29.5t-31.5 -67t-58 -125t-93 -202t-138 -297.5h-178l217 469 q-64 -16 -138 -16q-87 0 -153 18.5t-116 49t-85 69.5t-57 80q-55 95 -65 218zM295 888q0 -50 12.5 -88t33.5 -66t47.5 -47t53.5 -32q64 -29 148 -32q82 3 147 32q27 13 53.5 32t47.5 47t33.5 66t12.5 88v100q0 47 -12.5 83t-33.5 63.5t-47.5 45.5t-53.5 30q-65 28 -147 32 q-84 -4 -148 -32q-27 -12 -53.5 -30t-47.5 -45.5t-33.5 -63.5t-12.5 -83v-100z" />
<glyph unicode=":" horiz-adv-x="414" d="M85 276q0 25 9.5 47.5t26 39t38.5 26t48 9.5q25 0 47.5 -9.5t39 -26t26 -39t9.5 -47.5t-9.5 -47t-26 -39t-39 -26.5t-47.5 -9.5q-26 0 -48 9.5t-38.5 26.5t-26 39t-9.5 47zM90 1008q0 25 10 47.5t26 39t38 26t48 9.5q25 0 47 -9.5t39 -26t26.5 -39t9.5 -47.5t-9.5 -47 t-26.5 -39t-39 -26.5t-47 -9.5q-26 0 -48 9.5t-38 26.5t-26 39t-10 47z" />
<glyph unicode=";" horiz-adv-x="423" d="M72.5 7q2.5 8 6.5 13q5 6 11 11q47 22 74 43.5t40.5 38.5t17.5 29t4 14q-26 0 -48 9.5t-39 26t-26.5 38.5t-9.5 47t9.5 47t26.5 38.5t39 26t48 9.5q25 0 47.5 -9.5t39 -26t26 -38.5t10.5 -47q1 -59 -14 -104.5t-40 -80t-55.5 -58.5t-58 -39.5t-48.5 -23t-28 -9.5 q-10 -4 -16.5 -0.5t-9.5 9.5q-4 5 -6 15q-3 13 -0.5 21zM103 1008q0 25 9.5 47t26.5 39t39 26.5t47 9.5t47.5 -9.5t39.5 -26.5t26.5 -39t9.5 -47q0 -26 -9.5 -48t-26.5 -38.5t-39.5 -26t-47.5 -9.5t-47 9.5t-39 26t-26.5 38.5t-9.5 48z" />
<glyph unicode="&#x3c;" horiz-adv-x="1317" d="M128 499v323l1063 368v-198l-927 -330l927 -334v-196z" />
<glyph unicode="=" horiz-adv-x="1030" d="M105 353v169h809v-169h-809zM105 714v170h809v-170h-809z" />
<glyph unicode="&#x3e;" horiz-adv-x="1261" d="M111 132v196l926 334l-926 330v198l1063 -368v-323z" />
<glyph unicode="?" horiz-adv-x="917" d="M98 1212q0 13 3.5 36t15 49.5t34 54.5t61.5 50.5t96 36.5t138 14q85 0 144.5 -18.5t99 -48.5t62.5 -67.5t34.5 -74.5t14 -70t2.5 -54v-22q0 -24 -4.5 -51t-16.5 -57.5t-35 -66t-58 -78.5q-32 -39 -49 -72.5t-26 -57.5q-11 -28 -12 -51v-301h-181v301q0 43 10 80t27.5 69 t41.5 61.5t53 57.5q28 28 45 51t26 42t11.5 37t2.5 37q0 47 -15 81.5t-41.5 57.5t-61.5 34.5t-74 11.5q-72 0 -111 -13.5t-57 -29.5q-20 -19 -24 -42h-153q-2 1 -2 3q-1 3 -1 10zM379 137q0 58 38 96q41 40 97 40q52 0 95 -40q40 -38 40 -96q0 -59 -40 -99q-38 -38 -95 -38 t-97 40q-38 38 -38 97z" />
<glyph unicode="@" horiz-adv-x="1623" d="M137 651q0 145 55 271.5t150 220.5t221.5 149t270.5 55q130 0 247 -43t204 -119t138.5 -181.5t51.5 -229.5q0 -80 -20.5 -150.5t-55.5 -130t-80 -106.5t-94.5 -79t-100 -49.5t-95.5 -17.5q-48 0 -84 29t-42 83q-22 -21 -47 -41t-54 -36t-60 -25.5t-64 -9.5 q-61 0 -110 23.5t-83.5 64.5t-53.5 96t-19 119q0 92 30 182t85.5 161t133.5 114.5t175 43.5q62 0 116 -28.5t83 -94.5l24 88h159l-160 -526q-4 -12 -6 -22.5t-2 -19.5q0 -33 42 -33q37 0 75.5 28.5t69.5 75.5t51.5 111t20.5 135q0 107 -38.5 189.5t-103.5 139t-151.5 85.5 t-181.5 29q-115 0 -212.5 -43t-168 -118t-110 -177t-39.5 -220q0 -119 42 -220t114.5 -174t171 -114t212.5 -41q65 0 127 12.5t116.5 36t101.5 58t81 78.5h170q-42 -74 -107 -135t-144.5 -104t-169 -67t-179.5 -24q-150 0 -278 54.5t-222.5 149.5t-148.5 222.5t-54 274.5z M590 545q0 -64 28 -100t92 -36q54 0 98 30.5t76 77.5t49.5 103t17.5 108q0 30 -6.5 57t-19.5 48t-33 33.5t-47 12.5q-62 0 -109.5 -27.5t-79.5 -74.5t-49 -107.5t-17 -124.5z" />
<glyph unicode="A" horiz-adv-x="1165" d="M103 0v989q10 122 64 217q23 40 57.5 79t84 70.5t115.5 50t153 18.5q86 0 152.5 -18.5t116 -50t84.5 -70.5t58 -79q54 -95 64 -217v-989h-181v600h-587v-600h-181zM284 770h587v219q0 47 -12.5 83.5t-33 63.5t-47.5 45t-54 30q-64 29 -147 32q-82 -3 -146 -32 q-28 -12 -54.5 -30t-47.5 -45t-33 -63.5t-12 -83.5v-219z" />
<glyph unicode="B" horiz-adv-x="1122" d="M96 0v1401h544q84 0 157.5 -30t129 -82.5t87 -124.5t31.5 -156q0 -95 -40 -173.5t-109 -136.5q69 -55 109.5 -125.5t40.5 -166.5q0 -84 -32 -158t-88 -129.5t-130 -87t-156 -31.5h-544zM277 170h364q46 0 86.5 19.5t71 52.5t48 75t17.5 89q0 45 -16.5 83.5t-46.5 67 t-71.5 45.5t-88.5 21h-364v-453zM277 786h364q46 0 86.5 17t71 47t48 71t17.5 87t-18 87t-48.5 71.5t-71 48t-86.5 17.5h-363v-446z" />
<glyph unicode="C" horiz-adv-x="1157" d="M106 417v571q10 122 65 218q22 40 56.5 79t84.5 70.5t116 50t153 18.5q86 0 152 -18.5t115.5 -50t84.5 -70.5t58 -79q54 -96 64 -218v-31h-180v31q0 47 -12.5 84t-33.5 64t-47.5 45t-53.5 30q-65 29 -147 32q-83 -3 -147 -32q-27 -12 -53.5 -30t-47.5 -45t-33.5 -64 t-12.5 -84v-571q0 -50 12.5 -87.5t33.5 -65.5t47.5 -47t53.5 -32q64 -29 147 -32q82 3 147 32q27 13 53.5 32t47.5 47t33.5 65.5t12.5 87.5v32h180v-32q-10 -122 -64 -217q-23 -41 -58 -80t-84.5 -69.5t-115.5 -49t-152 -18.5q-87 0 -153 18.5t-116 49t-84.5 69.5t-56.5 80 q-55 95 -65 217z" />
<glyph unicode="D" horiz-adv-x="1091" d="M108 0v1401h473q86 0 152 -18.5t115.5 -49t84.5 -69.5t58 -80q54 -95 64 -217v-533q-10 -122 -64 -217q-23 -41 -58 -80t-84.5 -69.5t-115.5 -49t-152 -18.5h-473zM289 170h292q82 3 147 32q27 13 53.5 32t47.5 46.5t33.5 65.5t12.5 88v533q0 50 -12.5 88t-33.5 65.5 t-47.5 46.5t-53.5 32q-65 29 -147 33h-292v-1062z" />
<glyph unicode="E" horiz-adv-x="1061" d="M112 0v1401h928v-169h-747v-487h556v-170h-556v-405h747v-170h-928z" />
<glyph unicode="F" horiz-adv-x="1047" d="M101 0v1401h927v-169h-747v-487h556v-170h-556v-575h-180z" />
<glyph unicode="G" horiz-adv-x="1235" d="M163 417v571q10 122 64 218q23 40 57.5 79t84 70.5t115.5 50t153 18.5q86 0 152 -18.5t116 -50t85 -70.5t58 -79q54 -96 64 -218v-31h-181v31q0 47 -12.5 83t-33.5 63.5t-47.5 45.5t-53.5 30q-64 28 -147 32q-82 -4 -147 -32q-27 -12 -53.5 -30t-47.5 -45.5t-33 -63.5 t-12 -83v-571q0 -50 12 -87.5t33 -65.5t47.5 -47t53.5 -32q65 -29 147 -32q83 3 147 32q27 13 53.5 32t47.5 47t33.5 65.5t12.5 87.5v182h-378v169h559v-351q-10 -122 -64 -217q-23 -41 -58 -80t-85 -69.5t-116 -49t-152 -18.5q-87 0 -153 18.5t-115.5 49t-84 69.5t-57.5 80 q-54 95 -64 217z" />
<glyph unicode="H" horiz-adv-x="1221" d="M101 0v1401h180v-669h661v669h181v-1401h-181v563h-661v-563h-180z" />
<glyph unicode="I" horiz-adv-x="517" d="M174 0v1401h181v-1401h-181z" />
<glyph unicode="J" horiz-adv-x="600" d="M11 -17v181q83 3 147 31q27 12 53.5 30.5t47.5 45t33.5 63.5t12.5 84v983h181v-983q-10 -123 -65 -218q-22 -41 -57 -80t-85 -69.5t-116 -49t-152 -18.5z" />
<glyph unicode="K" horiz-adv-x="1139" d="M101 0v1412h183v-506l506 506h255l-706 -706l706 -706h-255l-506 506v-506h-183z" />
<glyph unicode="L" horiz-adv-x="926" d="M97 0v1425h181v-1255h642v-170h-823z" />
<glyph unicode="M" horiz-adv-x="1374" d="M75 0v1401h180l430 -928q109 234 216.5 466t213.5 462h181v-1401h-181v970l-330 -712h-200l-330 713v-971h-180z" />
<glyph unicode="N" horiz-adv-x="1343" d="M98 0v1401h262l704 -1164v1164h181v-1401h-235l-732 1163v-1163h-180z" />
<glyph unicode="O" horiz-adv-x="1161" d="M110 418v571q10 122 64 217q23 40 57.5 79t84 70.5t115.5 50t153 18.5q86 0 152 -18.5t116 -50t85 -70.5t57 -79q55 -95 65 -217v-571q-10 -123 -65 -218q-22 -41 -57 -80t-85 -69.5t-116 -49t-152 -18.5q-87 0 -153 18.5t-115.5 49t-84 69.5t-57.5 80q-54 95 -64 218z M290 418q0 -50 12.5 -88t33.5 -66t47.5 -47t53.5 -32q65 -29 147 -32q83 3 147 32q27 13 53.5 32t47.5 47t33.5 66t12.5 88v571q0 47 -12.5 83.5t-33.5 63.5t-47.5 45t-53.5 30q-64 29 -147 32q-82 -3 -147 -32q-27 -12 -53.5 -30t-47.5 -45t-33.5 -63.5t-12.5 -83.5v-571z " />
<glyph unicode="P" horiz-adv-x="1083" d="M99 0v1401h544q85 0 158.5 -30t128.5 -83t87 -124.5t32 -156.5q0 -84 -32 -155.5t-87 -124t-128.5 -82.5t-158.5 -30h-363v-615h-181zM280 784h363q46 0 87 17.5t71.5 47.5t48.5 70.5t18 87.5t-18 88t-48.5 71.5t-71.5 48t-87 17.5h-363v-448z" />
<glyph unicode="Q" horiz-adv-x="1256" d="M153 418v571q10 122 64 217q23 40 57 79t84 70.5t116 50t153 18.5q86 0 152 -18.5t116 -50t85 -70.5t57 -79q55 -95 66 -217v-571q-1 -22 -6 -48q-4 -23 -12 -52t-21 -61l121 -160l-143 -109l-85 110q-53 -49 -133 -82t-197 -33q-87 0 -153 18.5t-116 49t-84 69.5t-57 80 q-54 95 -64 218zM334 418q0 -50 12.5 -88t33 -66t47 -47t53.5 -32q65 -29 147 -32q40 1 79 10q34 8 73 25t72 48l-162 208l144 111q7 -9 19 -25q10 -14 26.5 -35.5t42.5 -53.5v548q0 47 -12.5 83.5t-33.5 63.5t-47.5 45t-53.5 30q-64 29 -147 32q-82 -3 -147 -32 q-27 -12 -53.5 -30t-47 -45t-33 -63.5t-12.5 -83.5v-571z" />
<glyph unicode="R" horiz-adv-x="1158" d="M122 0v1401h545q83 0 157 -30t129 -83t87 -124.5t32 -156.5t-32 -156t-87 -124q23 -18 44.5 -44t38 -62t26.5 -83.5t10 -106.5v-431h-182v431q-2 21 -11.5 52t-32.5 60.5t-61.5 50.5t-98.5 21h-382v-615h-182zM304 784h363q46 0 86.5 17.5t71 47.5t48 70.5t17.5 87.5 t-17.5 88t-48 71.5t-71 48t-86.5 17.5h-363v-448z" />
<glyph unicode="S" horiz-adv-x="1082" d="M98 162l120 117q22 -21 58 -44t81.5 -41t98 -29t108.5 -11t102 14t78 40t49 61t17 78q0 62 -27.5 104t-73 72.5t-103 54t-117.5 49.5t-117.5 60t-102.5 83.5t-73 121t-28 172.5q0 99 35 167.5t91.5 111t128 62t143.5 19.5q75 0 136.5 -17t106.5 -36q53 -23 95 -52l93 -64 l-101 -151l-77 50q-28 18 -63 34.5t-70.5 28.5t-67.5 19t-52 7q-43 0 -81.5 -13t-67.5 -36.5t-46.5 -56.5t-17.5 -73q0 -65 27.5 -111t72.5 -81t103 -62t118 -55t118 -61t103 -78.5t73 -108.5t28 -150v-10q-2 -94 -35.5 -163t-92 -113.5t-136.5 -66t-166 -21.5 q-124 0 -211.5 27.5t-145.5 61.5q-67 39 -111 90z" />
<glyph unicode="T" horiz-adv-x="1013" d="M35 1232v169h940v-169h-383v-1232h-181v1232h-376z" />
<glyph unicode="U" horiz-adv-x="1244" d="M147 424v977h182v-977q0 -48 12.5 -84.5t33.5 -63t47.5 -45.5t53.5 -30q64 -28 147 -31q82 3 147 31q27 11 53.5 30t47.5 45.5t33 63t12 84.5v977h181v-977q-10 -123 -64 -218q-23 -41 -58 -80t-84.5 -69.5t-115.5 -49t-152 -18.5q-110 0 -187.5 29t-130.5 74.5t-84 99 t-47.5 102t-21.5 84.5t-5 46z" />
<glyph unicode="V" horiz-adv-x="1235" d="M79 1401h190l347 -1147l348 1147h190q-48 -149 -100.5 -315.5t-109 -345t-115 -365.5t-118.5 -375h-190z" />
<glyph unicode="W" horiz-adv-x="1717" d="M79 1401h187l253 -1147l254 1147h186l255 -1147l254 1147h186l-341 -1401h-199l-247 1018l-249 -1018h-198q-49 201 -98 399.5t-93 380.5t-82.5 340.5t-67.5 280.5z" />
<glyph unicode="X" horiz-adv-x="1456" d="M63 0l545 705l-545 707h229l430 -559l431 559h228l-545 -707l545 -705h-230q-102 134 -210 274t-219 283q-111 -143 -218.5 -283t-210.5 -274h-230z" />
<glyph unicode="Y" horiz-adv-x="1200" d="M49 1412h229l316 -742l318 742h227l-453 -926v-486h-181v486z" />
<glyph unicode="Z" horiz-adv-x="1204" d="M70 0v170l809 1061h-809v169h1027v-169l-801 -1061h832v-170h-1058z" />
<glyph unicode="[" horiz-adv-x="774" d="M168 -314v2078h507v-170h-326v-1739h326v-169h-507z" />
<glyph unicode="\" horiz-adv-x="1148" d="M102 1695h180l732 -2089h-181z" />
<glyph unicode="]" horiz-adv-x="690" d="M78 -145h325v1739h-325v170h506v-2078h-506v169z" />
<glyph unicode="^" horiz-adv-x="1229" d="M121 473l328 952h322l330 -952h-199l-291 815l-293 -815h-197z" />
<glyph unicode="_" horiz-adv-x="1265" d="M114 -43h1053v-181h-1053v181z" />
<glyph unicode="`" horiz-adv-x="437" d="M85 1357h157l143 -356h-158z" />
<glyph unicode="a" horiz-adv-x="1078" d="M36 424v203q10 122 65 217q22 41 56.5 80t84.5 70t116 49.5t153 18.5q98 0 170 -23.5t124 -61.5v74h180v-1051h-180v73q-52 -37 -124 -60.5t-170 -23.5q-87 0 -153 18.5t-116 49t-84.5 69.5t-56.5 80q-55 95 -65 218zM217 424q0 -50 12.5 -88.5t33.5 -66t47.5 -47 t53.5 -31.5q64 -29 147 -33q82 4 147 33q27 12 53.5 31.5t47.5 47t33.5 66t12.5 88.5v203q0 48 -12.5 84t-33.5 63t-47.5 45t-53.5 31q-65 28 -147 31q-83 -3 -147 -31q-27 -13 -53.5 -31t-47.5 -45t-33.5 -63t-12.5 -84v-203z" />
<glyph unicode="b" horiz-adv-x="1083" d="M77 0v1446h181v-469q52 38 123.5 61.5t169.5 23.5q86 0 152.5 -18.5t116 -49.5t84.5 -70t58 -80q54 -95 64 -217v-203q-10 -123 -64 -218q-23 -41 -58 -80t-84.5 -69.5t-116 -49t-152.5 -18.5q-98 0 -169.5 23.5t-123.5 60.5v-73h-181zM258 424q0 -50 12 -88.5t33 -66 t47.5 -47t54.5 -31.5q64 -29 146 -33q82 4 146 33q27 12 53.5 31.5t47.5 47t33.5 66t12.5 88.5v203q0 48 -12.5 84t-33.5 63t-47.5 45t-53.5 31q-64 28 -146 31q-82 -3 -146 -31q-28 -13 -54.5 -31t-47.5 -45t-33 -63t-12 -84v-203z" />
<glyph unicode="c" horiz-adv-x="1056" d="M51 424v203q10 122 64 217q23 41 57.5 80t84 70t115.5 49.5t153 18.5q94 0 164 -22t121 -57t85 -79t55 -88t31 -83.5t15 -66.5h-179q-6 40 -21 70.5t-37 53t-47.5 38.5t-51.5 26q-61 24 -135 27q-82 -3 -146 -31q-28 -13 -54.5 -31t-47 -45t-33 -63t-12.5 -84v-203 q0 -50 12.5 -88.5t33 -66t47 -47t54.5 -31.5q64 -29 146 -33q74 4 136 28q26 11 51.5 27t47 40t36.5 56t21 75h179q-4 -26 -14.5 -66t-31.5 -83.5t-55 -87.5t-85 -79t-121 -57t-164 -22q-87 0 -153 18.5t-115.5 49t-84 69.5t-57.5 80q-54 95 -64 218z" />
<glyph unicode="d" horiz-adv-x="1070" d="M54 424v203q10 122 65 217q22 41 56.5 80t84.5 70t116 49.5t153 18.5q98 0 170 -23.5t124 -61.5v469h180v-1446h-180v73q-52 -37 -124 -60.5t-170 -23.5q-87 0 -153 18.5t-116 49t-84.5 69.5t-56.5 80q-55 95 -65 218zM236 424q0 -50 12.5 -88.5t33 -66t47 -47 t53.5 -31.5q64 -29 147 -33q82 4 147 33q27 12 53.5 31.5t47.5 47t33.5 66t12.5 88.5v203q0 48 -12.5 84t-33.5 63t-47.5 45t-53.5 31q-65 28 -147 31q-83 -3 -147 -31q-27 -13 -53.5 -31t-47 -45t-33 -63t-12.5 -84v-203z" />
<glyph unicode="e" horiz-adv-x="1047" d="M50 424v203q10 122 64 217q23 41 57.5 80t84 70t115.5 49.5t152 18.5q94 0 164.5 -22t121.5 -57t85 -79t55 -88t31 -83.5t14 -66.5v-170h-765v-72q0 -50 12.5 -88.5t33.5 -66t47.5 -47t53.5 -31.5q65 -29 147 -33q74 4 136 28q26 11 51.5 27t47 40t36.5 56t21 75h179 q-4 -26 -14 -66t-31 -83.5t-55 -87.5t-85 -79t-121.5 -57t-164.5 -22q-86 0 -152 18.5t-115.5 49t-84 69.5t-57.5 80q-54 95 -64 218zM233 666h582q-6 40 -21 70.5t-36.5 53t-47 38.5t-51.5 26q-61 24 -136 27q-73 -3 -134 -27q-26 -10 -51.5 -26t-47 -38.5t-37.5 -53 t-20 -70.5z" />
<glyph unicode="f" horiz-adv-x="682" d="M50 881v170h190q4 27 14 66.5t31.5 83.5t55.5 87.5t85 78.5t121 57t164 22v-180q-75 -4 -136 -28q-26 -10 -51.5 -25t-47 -37.5t-37 -53t-20.5 -71.5h183v-170h-185v-881h-181v881h-186z" />
<glyph unicode="g" horiz-adv-x="1117" d="M81 424v203q11 122 65 217q22 41 56.5 80t84.5 70t116 49.5t153 18.5q98 0 170 -23t124 -62v75h181v-1024q-11 -123 -65 -218q-22 -41 -57.5 -79.5t-85 -69.5t-115.5 -49.5t-152 -18.5q-115 0 -195.5 33t-133.5 81.5t-82.5 105.5t-42.5 105h182q26 -58 71 -89t90 -46 q53 -17 111 -19q82 3 147 33q27 12 53.5 31t47.5 47t33.5 66t12.5 87v45q-52 -36 -124 -60t-170 -24q-87 0 -153 18.5t-116 49t-84.5 69.5t-56.5 80q-54 95 -65 218zM262 424q0 -50 12.5 -88.5t33.5 -66t47.5 -47t53.5 -31.5q64 -29 147 -33q82 4 147 33q27 12 53.5 31.5 t47.5 47t33.5 66t12.5 88.5v203q0 48 -12.5 84.5t-33.5 63.5t-47.5 45t-53.5 31q-65 28 -147 32q-83 -4 -147 -32q-27 -13 -53.5 -31t-47.5 -45t-33.5 -63.5t-12.5 -84.5v-203z" />
<glyph unicode="h" horiz-adv-x="1126" d="M87 0v1446h181v-470q51 38 122.5 62t171.5 24q85 0 151.5 -18.5t116 -49.5t84.5 -70t58 -80q54 -95 64 -217v-627h-181v627q0 48 -12 84t-33 62.5t-47.5 44.5t-53.5 31q-65 28 -147 31q-83 -3 -147 -31q-27 -13 -54 -31t-47.5 -44.5t-33 -62.5t-12.5 -84v-627h-181z" />
<glyph unicode="i" horiz-adv-x="413" d="M84 1346q0 26 9.5 48t26.5 38.5t39 26t47 9.5t47.5 -9.5t39.5 -26t26.5 -38.5t9.5 -48q0 -25 -9.5 -47t-26.5 -38.5t-39.5 -26t-47.5 -9.5t-47 9.5t-39 26t-26.5 38.5t-9.5 47zM115 0v1051h181v-1051h-181z" />
<glyph unicode="j" horiz-adv-x="600" d="M40 -226q82 3 146 32q28 11 54.5 29.5t47 45t33 63.5t12.5 84v1023h181v-1023q-10 -123 -64 -218q-23 -41 -58 -79.5t-84.5 -69.5t-116 -49.5t-151.5 -18.5v181zM295 1344q0 26 9.5 48t25.5 38t38 26t48 10q25 0 47.5 -10t39 -26t26 -38t9.5 -48q0 -25 -9.5 -47 t-26 -38.5t-39 -26t-47.5 -9.5q-26 0 -48 9.5t-38 26t-25.5 38.5t-9.5 47z" />
<glyph unicode="k" horiz-adv-x="951" d="M86 0v1446h183v-690l402 306h256l-603 -506l603 -556h-256l-402 356v-356h-183z" />
<glyph unicode="l" horiz-adv-x="416" d="M120 0v1446h181v-1446h-181z" />
<glyph unicode="m" horiz-adv-x="1549" d="M170 0v1051h180v-74q12 13 26 27.5t35 27.5t50 21.5t70 8.5q96 0 160 -38.5t103 -93.5q39 55 102.5 93.5t161.5 38.5q81 0 147.5 -28.5t114 -84t73.5 -137t26 -185.5v-627h-181v627q0 48 -7.5 84t-20.5 63t-29.5 45t-33.5 31q-41 28 -92 31q-48 -3 -85 -31 q-16 -13 -31.5 -31t-27.5 -45t-19 -63t-7 -84v-627h-181v627q0 48 -7.5 84t-19 63t-27.5 45t-32 31q-37 28 -85 31q-52 -3 -91 -31q-17 -13 -34 -31t-29.5 -45t-20.5 -63t-8 -84v-627h-180z" />
<glyph unicode="n" horiz-adv-x="1122" d="M87 0v1051h181v-75q51 38 122.5 62t171.5 24q85 0 151.5 -18.5t116 -49.5t84.5 -70t58 -80q54 -95 64 -217v-627h-181v627q0 48 -12 84t-33 62.5t-47.5 44.5t-53.5 31q-65 28 -147 31q-83 -3 -147 -31q-27 -13 -54 -31t-47.5 -44.5t-33 -62.5t-12.5 -84v-627h-181z" />
<glyph unicode="o" horiz-adv-x="1047" d="M50 424v203q10 122 64 217q23 41 57.5 80t84 70t115.5 49.5t153 18.5q86 0 152 -18.5t116 -49.5t84.5 -70t56.5 -80q55 -95 65 -217v-203q-10 -123 -65 -218q-22 -41 -56.5 -80t-84.5 -69.5t-116 -49t-152 -18.5q-87 0 -153 18.5t-115.5 49t-84 69.5t-57.5 80 q-54 95 -64 218zM229 424q0 -50 12.5 -88.5t33.5 -66t47.5 -47t53.5 -31.5q65 -29 148 -33q83 4 147 33q27 12 53.5 31.5t47.5 47t33.5 66t12.5 88.5v203q0 48 -12.5 84t-33.5 63t-47.5 45t-53.5 31q-64 28 -147 31q-83 -3 -148 -31q-27 -13 -53.5 -31t-47.5 -45t-33.5 -63 t-12.5 -84v-203z" />
<glyph unicode="p" horiz-adv-x="1096" d="M80 -407v1458h181v-74q52 38 124 61.5t170 23.5q86 0 152 -18.5t115.5 -49.5t84.5 -70t58 -80q54 -95 64 -217v-203q-10 -123 -64 -218q-23 -41 -58 -80t-84.5 -69.5t-115.5 -49t-152 -18.5q-98 0 -170 23.5t-124 60.5v-480h-181zM261 424q0 -48 12.5 -84.5t33.5 -63 t47.5 -45.5t53.5 -30q64 -28 147 -31q81 3 146 31q27 11 53.5 30t47.5 45.5t33.5 63t12.5 84.5v203q0 50 -12.5 88t-33.5 66t-47.5 47.5t-53.5 31.5q-65 29 -146 33q-83 -4 -147 -33q-27 -12 -53.5 -31.5t-47.5 -47.5t-33.5 -66t-12.5 -88v-203z" />
<glyph unicode="q" horiz-adv-x="1113" d="M81 424v203q11 122 65 217q22 41 56.5 80t84.5 70t116 49.5t153 18.5q98 0 170 -23.5t124 -61.5v74h181v-1458h-181v480q-52 -37 -124 -60.5t-170 -23.5q-87 0 -153 18.5t-116 49t-84.5 69.5t-56.5 80q-54 95 -65 218zM263 424q0 -48 12.5 -84.5t33 -63t47 -45.5 t53.5 -30q64 -28 147 -31q82 3 147 31q27 11 53.5 30t47.5 45.5t33.5 63t12.5 84.5v203q0 50 -12.5 88t-33.5 66t-47.5 47.5t-53.5 31.5q-65 29 -147 33q-83 -4 -147 -33q-27 -12 -53.5 -31.5t-47 -47.5t-33 -66t-12.5 -88v-203z" />
<glyph unicode="r" horiz-adv-x="574" d="M77 0v1051h181v-74q52 38 123.5 61.5t169.5 23.5v-169q-82 -4 -146 -33q-28 -12 -54.5 -31.5t-47.5 -47.5t-33 -66t-12 -88v-627h-181z" />
<glyph unicode="s" horiz-adv-x="762" d="M28 132l109 106q20 -17 49 -33.5t61.5 -29.5t67 -21.5t68.5 -8.5q75 0 118 33.5t43 88.5q0 32 -15.5 58t-40.5 47.5t-56.5 38t-65.5 31.5q-47 20 -97 46t-90.5 65t-67 95.5t-26.5 139.5q0 75 26.5 127.5t69 85t96 47t107.5 14.5q51 0 94 -10.5t82 -28.5t77.5 -41.5 t80.5 -48.5l-91 -139q-91 58 -153 83t-90 25q-26 0 -51 -8.5t-43.5 -23.5t-29.5 -36.5t-11 -45.5q0 -39 16.5 -68.5t44 -52t62.5 -41t72 -35.5q45 -20 92.5 -46.5t86 -64t63 -88.5t24.5 -120v-5q0 -73 -26 -125.5t-70 -86.5t-103.5 -50t-126.5 -16q-78 0 -139 18 t-105.5 41.5t-72 47.5t-39.5 36z" />
<glyph unicode="t" horiz-adv-x="630" d="M41 881v170h185v395h183v-395h184v-170h-186v-881h-181v881h-185z" />
<glyph unicode="u" horiz-adv-x="1082" d="M49 424v627h180v-627q0 -48 12.5 -84.5t33.5 -63t47.5 -45.5t53.5 -30q65 -28 147 -31q83 3 147 31q27 11 53.5 30t47.5 45.5t33.5 63t12.5 84.5v627h181v-627q-10 -123 -65 -218q-22 -41 -57 -80t-85 -69.5t-116 -49t-152 -18.5q-87 0 -153 18.5t-115.5 49t-84 69.5 t-57.5 80q-54 95 -64 218z" />
<glyph unicode="v" horiz-adv-x="1139" d="M53 1062h198l330 -926l334 926h196l-367 -1062h-323z" />
<glyph unicode="w" horiz-adv-x="1652" d="M41 1062h205l240 -847l238 847h198l240 -846l238 846h207l-339 -1062h-211l-234 746l-233 -746h-210z" />
<glyph unicode="x" horiz-adv-x="1191" d="M71 0l412 533q-91 118 -155.5 200.5t-110.5 142.5t-80 103.5t-65 82.5h230l296 -381l291 381h230l-408 -529q101 -133 204 -266.5t205 -266.5h-225l-297 384q-75 -96 -150 -190.5t-149 -193.5h-228z" />
<glyph unicode="y" horiz-adv-x="1052" d="M59 1062h208l267 -772l268 772h207l-514 -1463h-211l145 401z" />
<glyph unicode="z" horiz-adv-x="1039" d="M72 0v170l621 723h-621v169h885v-169l-616 -723h616v-170h-885z" />
<glyph unicode="{" horiz-adv-x="934" d="M80 533v181q48 4 88.5 22t70.5 48t47 69.5t17 84.5v265q0 110 45.5 192.5t120.5 138.5t171.5 85t197.5 31v-170q-61 0 -124 -16t-114 -50t-83.5 -86.5t-32.5 -124.5v-265q0 -96 -40.5 -177.5t-107.5 -136.5q67 -56 107.5 -137t40.5 -177v-267q0 -71 32.5 -123.5 t83.5 -86.5t114 -50.5t124 -16.5v-169q-101 2 -197.5 30.5t-171.5 84.5t-120.5 138.5t-45.5 192.5v267q0 45 -17 84.5t-47 69.5t-70.5 48t-88.5 21z" />
<glyph unicode="|" horiz-adv-x="463" d="M141 -396v2090h181v-2090h-181z" />
<glyph unicode="}" horiz-adv-x="997" d="M118 -234q61 0 124 16.5t114 50.5t83.5 86.5t32.5 123.5v267q0 96 40.5 177t107.5 137q-67 55 -107.5 136.5t-40.5 177.5v265q0 72 -32.5 124.5t-83.5 86.5t-114 50t-124 16v170q101 -2 197.5 -31t171.5 -85t120.5 -138.5t45.5 -192.5v-265q0 -45 17 -84.5t47 -69.5 t70.5 -48t88.5 -22v-181q-48 -3 -88.5 -21t-70.5 -48t-47 -69.5t-17 -84.5v-267q0 -110 -45.5 -192.5t-120.5 -138.5t-171.5 -84.5t-197.5 -30.5v169z" />
<glyph unicode="~" horiz-adv-x="1089" d="M47 633q2 3 4 8q2 3 3.5 6.5t4.5 7.5q33 69 70 112t75.5 67.5t76 33.5t69.5 9q24 0 44 -3.5t34 -7.5q17 -5 32 -11l131 -62q26 -12 49.5 -17.5t45.5 -5.5q45 0 79 19t57 42q27 27 45 62l162 -78q-26 -67 -60 -111.5t-74 -71t-82 -38t-85 -11.5q-55 0 -97.5 14.5t-81 33 t-76.5 33t-82 14.5q-46 0 -79.5 -20t-56.5 -42q-26 -27 -44 -61z" />
<glyph unicode="&#xad;" horiz-adv-x="936" d="M76 531v170h762v-170h-762z" />
<glyph unicode="&#xde;" horiz-adv-x="1890" d="M76 353v24v550q36 69 80.5 117.5t91.5 81t92.5 52t84.5 29t68.5 11.5t44.5 2h10q88 -2 155.5 -22.5t117 -52t84.5 -71t57.5 -81.5t35 -82.5t19 -74.5t7.5 -57t1 -30v-291q0 -77 19.5 -129.5t49.5 -86.5t66 -52t68.5 -26.5t57 -10.5t30.5 -2q71 0 119.5 21.5t80.5 54 t49.5 71t26 72t10 58.5t1.5 30v754h180v-1213q0 -87 -22 -147.5t-55.5 -100t-73.5 -61.5t-76 -32.5t-62.5 -12.5t-33.5 -2q-78 0 -133.5 20.5t-92.5 44.5q-44 30 -73 66l122 119q5 -6 18 -19t34 -26.5t52 -24.5t73 -11q26 0 46 8t34.5 21t25 30t17.5 34q16 41 20 94v171 q-2 -34 -15.5 -59.5t-34 -45t-46.5 -33t-52 -22.5q-62 -21 -139 -27h-41q-105 0 -177.5 29.5t-120.5 74.5t-74.5 101t-39.5 108.5t-16 96t-3 65.5v291q0 73 -19.5 122.5t-51 81.5t-67.5 49t-69.5 25.5t-57.5 9.5t-31 1q-54 0 -96 -12t-73 -32.5t-52 -46.5t-34 -53 q-32 -63 -36 -145v-372q3 -59 25 -105q11 -19 25.5 -37.5t36 -33.5t51 -24t67.5 -9h132v-168h-243q-76 6 -137 44q-26 17 -51 42.5t-44.5 62.5t-31 87t-11.5 117z" />
<glyph unicode="&#xe0d;" horiz-adv-x="1890" d="M76 353v24v550q36 69 80.5 117.5t91.5 81t92.5 52t84.5 29t68.5 11.5t44.5 2h10q88 -2 155.5 -22.5t117 -52t84.5 -71t57.5 -81.5t35 -82.5t19 -74.5t7.5 -57t1 -30v-291q0 -77 19.5 -129.5t49.5 -86.5t66 -52t68.5 -26.5t57 -10.5t30.5 -2q71 0 119.5 21.5t80.5 54 t49.5 71t26 72t10 58.5t1.5 30v754h180v-1213q0 -87 -22 -147.5t-55.5 -100t-73.5 -61.5t-76 -32.5t-62.5 -12.5t-33.5 -2q-78 0 -133.5 20.5t-92.5 44.5q-44 30 -73 66l122 119q5 -6 18 -19t34 -26.5t52 -24.5t73 -11q26 0 46 8t34.5 21t25 30t17.5 34q16 41 20 94v171 q-2 -34 -15.5 -59.5t-34 -45t-46.5 -33t-52 -22.5q-62 -21 -139 -27h-41q-105 0 -177.5 29.5t-120.5 74.5t-74.5 101t-39.5 108.5t-16 96t-3 65.5v291q0 73 -19.5 122.5t-51 81.5t-67.5 49t-69.5 25.5t-57.5 9.5t-31 1q-54 0 -96 -12t-73 -32.5t-52 -46.5t-34 -53 q-32 -63 -36 -145v-372q3 -59 25 -105q11 -19 25.5 -37.5t36 -33.5t51 -24t67.5 -9h132v-168h-243q-76 6 -137 44q-26 17 -51 42.5t-44.5 62.5t-31 87t-11.5 117z" />
<glyph unicode="&#xff;" horiz-adv-x="2194" d="M215 578q4 33 21.5 62.5t50.5 43.5q8 3 20.5 6t29.5 3q18 0 41 -4t42 -23q23 -23 26 -39t4 -20h-49q-7 24 -24.5 33.5t-38.5 9.5q-23 0 -44 -15q-13 -10 -19.5 -26.5t-9 -34t0 -34t7.5 -27.5q8 -16 22.5 -30t36.5 -16q14 -1 30.5 4t28.5 19q10 13 12 22t3 15h-59v43h103 v-138h-32l-7 31q-4 -5 -11 -12.5t-17 -13.5t-23.5 -10t-32.5 -3q-35 2 -50.5 12.5t-24.5 20.5q-23 21 -32 54.5t-5 66.5zM487 433v149h38v-28h2q2 5 4.5 10.5t13.5 11.5q5 5 11.5 7.5t15.5 1.5v-40q-13 1 -27.5 -1.5t-19.5 -27.5v-83h-38zM577 472q2 16 10.5 29.5t34.5 18.5 q11 0 21 2t17 5q10 3 10 17q0 13 -26 13q-16 0 -20.5 -8t-4.5 -17h-36q0 18 7 29t16.5 16t19.5 6.5t18 1.5q13 0 22 -1.5t14 -3.5q12 -6 19.5 -15.5t7.5 -27.5v-82q-1 -5 2 -9.5t6 -8.5v-4h-40q-5 4 -5 14q-10 -10 -20 -15.5t-27 -5.5q-48 0 -46 46zM617 470q2 -6 8 -10.5 t18 -1.5q17 3 22 13t5 23v9q-9 -6 -18.5 -6t-17.5 -2q-9 -2 -14 -9t-3 -16zM740 372v210h40v-23q8 11 14 17.5t25 8.5q16 1 26 -5.5t16 -12.5q10 -11 16 -27.5t6.5 -34.5t-5 -34.5t-15.5 -27.5q-10 -9 -19 -13t-25 -4t-23 6t-16 15v-75h-40zM780 504q0 -9 1.5 -17t3.5 -12 q6 -9 13 -13t13 -4q7 0 14 4t12 13q3 4 5 12t2 17t-2 17t-5 12q-5 9 -12 13t-14 4q-6 0 -13 -4t-13 -13q-2 -4 -3.5 -12t-1.5 -17zM904 431v203h40v-72q5 9 15.5 15.5t21.5 6.5q26 0 41.5 -12t15.5 -41v-100h-38v89q0 10 -4.5 19.5t-23.5 9.5q-18 0 -23 -8t-5 -17v-93h-40z M1058 572v11h26h27q7 1 13 1h13v-143h24v-10h-102v10h25v131h-26zM1081 645q0 12 8.5 19.5t20.5 7.5q10 0 18.5 -7.5t8.5 -19.5q0 -11 -8 -19t-19 -8q-12 0 -20.5 8t-8.5 19zM1166 573v11h24v47h24q8 0 15 1.5t15 2.5v-51h31v-11h-31v-107q0 -6 0.5 -13.5t9.5 -7.5 q12 0 15 8t6 17l11 -2q-6 -24 -21 -33.5t-39 -9.5q-27 0 -31.5 10t-4.5 25v113h-24zM1292 572v11h27h26q6 1 13 1h14v-107q0 -16 1 -26t14 -10q7 0 14.5 4.5t12.5 11t8 14t3 12.5v89h-27v11h27h26q7 1 13.5 1h13.5v-143h25v-10h-25q-7 0 -13.5 -1t-13.5 -2t-13.5 -1.5 t-12.5 -0.5v34h-1q-7 -19 -23.5 -27t-35.5 -8q-18 0 -27.5 4t-13.5 11t-4.5 18.5t-0.5 25.5v88h-27zM1512 501q0 22 8 38t19.5 26t25.5 15t24 5q13 0 25 -7t18 -20h1v120h-31v11h31q13 0 26 1.5t27 2.5v-252h21v-10h-74v21q-20 -27 -50 -27q-15 0 -28 6.5t-22.5 17.5 t-15 24.5t-5.5 27.5zM1572 455q0 -9 4.5 -15t13.5 -6q18 0 30.5 14.5t12.5 32.5v47q0 19 -12 33t-28 14q-9 0 -15 -4.5t-6 -13.5v-102zM1707 504q0 19 8 34.5t20.5 25.5t29 15.5t32.5 5.5q29 0 52 -18.5t23 -47.5q0 -7 -6.5 -7.5t-11.5 -0.5h-84v-49q0 -28 31 -28 q23 0 40 11.5t22 33.5l9 -2q-8 -27 -27.5 -39.5t-46.5 -12.5q-36 0 -63.5 19.5t-27.5 59.5zM1770 521h50v37q0 17 -27 17q-23 0 -23 -18v-36zM1887 457q0 12 9.5 21.5t22.5 9.5q12 0 21.5 -9.5t9.5 -21.5q0 -14 -9.5 -23t-21.5 -9q-13 0 -22.5 9.5t-9.5 22.5z" />
<glyph unicode="&#x152;" d="M-705 1583v170h180q21 -3 39 -12q16 -8 28.5 -24t12.5 -45v-146h332v-170h-502v227h-90z" />
<glyph unicode="&#xf70b;" d="M-705 1583v170h180q21 -3 39 -12q16 -8 28.5 -24t12.5 -45v-146h332v-170h-502v227h-90z" />
<glyph unicode="&#x153;" d="M-762 2112v169h180q22 -2 40 -11q15 -8 27.5 -24.5t12.5 -44.5v-147h332v-169h-501v227h-91z" />
<glyph unicode="&#xf714;" d="M-762 2112v169h180q22 -2 40 -11q15 -8 27.5 -24.5t12.5 -44.5v-147h332v-169h-501v227h-91z" />
<glyph unicode="&#x160;" d="M-820 1357v180q1 21 11 39q8 16 24.5 28.5t45.5 12.5h398v-169h-310v-91h-169z" />
<glyph unicode="&#xf709;" d="M-820 1357v180q1 21 11 39q8 16 24.5 28.5t45.5 12.5h398v-169h-310v-91h-169z" />
<glyph unicode="&#x161;" d="M-1049 1591q0 77 28 126.5t63 78.5t67.5 40.5t42.5 11.5h515v-170h-515q-15 0 -26 -8t-17.5 -21t-10 -28t-3.5 -29q0 -16 4 -32t11 -29t17.5 -21.5t22.5 -8.5q18 0 29 9t16.5 21.5t7 26t1.5 23.5v13h139v-9q0 -9 2 -23t7.5 -27.5t17 -23.5t30.5 -10t30 9.5t16.5 22.5 t7 27t1.5 23v11h145q0 -71 -20 -116.5t-49.5 -73t-64 -38t-64.5 -10.5q-29 0 -52 7t-40 16q-21 10 -35 23q-6 -4 -19 -12t-30.5 -15.5t-37.5 -13t-38 -5.5q-12 0 -31.5 2.5t-41.5 10t-44.5 23t-40.5 41.5t-29.5 64.5t-11.5 93.5z" />
<glyph unicode="&#xf712;" d="M-1049 1591q0 77 28 126.5t63 78.5t67.5 40.5t42.5 11.5h515v-170h-515q-15 0 -26 -8t-17.5 -21t-10 -28t-3.5 -29q0 -16 4 -32t11 -29t17.5 -21.5t22.5 -8.5q18 0 29 9t16.5 21.5t7 26t1.5 23.5v13h139v-9q0 -9 2 -23t7.5 -27.5t17 -23.5t30.5 -10t30 9.5t16.5 22.5 t7 27t1.5 23v11h145q0 -71 -20 -116.5t-49.5 -73t-64 -38t-64.5 -10.5q-29 0 -52 7t-40 16q-21 10 -35 23q-6 -4 -19 -12t-30.5 -15.5t-37.5 -13t-38 -5.5q-12 0 -31.5 2.5t-41.5 10t-44.5 23t-40.5 41.5t-29.5 64.5t-11.5 93.5z" />
<glyph unicode="&#x178;" d="M-822 1877v180q2 21 12 39q8 16 24 28.5t46 12.5h398v-170h-310v-90h-170z" />
<glyph unicode="&#xf717;" d="M-822 1877v180q2 21 12 39q8 16 24 28.5t46 12.5h398v-170h-310v-90h-170z" />
<glyph unicode="&#x17d;" d="M-512 1472v170h115v116h170v-116h116v-170h-116v-115h-170v115h-115z" />
<glyph unicode="&#xf70d;" d="M-512 1472v170h115v116h170v-116h116v-170h-116v-115h-170v115h-115z" />
<glyph unicode="&#x17e;" d="M-628 1994v170h115v116h169v-116h117v-170h-117v-115h-169v115h-115z" />
<glyph unicode="&#xf716;" d="M-628 1994v170h115v116h169v-116h117v-170h-117v-115h-169v115h-115z" />
<glyph unicode="&#x192;" d="M-1289 1356v172h492q-2 10 -3 20t-1 20q0 43 16.5 81.5t45 67.5t67.5 46t83 17t82.5 -17t67.5 -46t45.5 -67.5t16.5 -81.5q0 -44 -17 -83t-46 -67.5t-67.5 -45t-81.5 -16.5h-700zM-660 1568q0 -29 21 -49.5t50 -20.5q30 0 50 20.5t20 49.5q0 30 -20 49.5t-50 19.5 q-29 0 -50 -19.5t-21 -49.5z" />
<glyph unicode="&#xf703;" d="M-1289 1356v172h492q-2 10 -3 20t-1 20q0 43 16.5 81.5t45 67.5t67.5 46t83 17t82.5 -17t67.5 -46t45.5 -67.5t16.5 -81.5q0 -44 -17 -83t-46 -67.5t-67.5 -45t-81.5 -16.5h-700zM-660 1568q0 -29 21 -49.5t50 -20.5q30 0 50 20.5t20 49.5q0 30 -20 49.5t-50 19.5 q-29 0 -50 -19.5t-21 -49.5z" />
<glyph unicode="&#x2c6;" d="M-1075 1322q0 62 11.5 127.5t41 120.5t81 93.5t131.5 45.5l97 -100l97 100q57 0 98 -19.5t70 -50.5t47.5 -70t28.5 -77h259v-170h-408q0 68 -8 106t-17 57q-11 21 -25 28l-142 -142l-142 142q-14 -7 -25 -28q-9 -19 -17 -57t-8 -106h-170z" />
<glyph unicode="&#xf707;" d="M-1075 1322q0 62 11.5 127.5t41 120.5t81 93.5t131.5 45.5l97 -100l97 100q57 0 98 -19.5t70 -50.5t47.5 -70t28.5 -77h259v-170h-408q0 68 -8 106t-17 57q-11 21 -25 28l-142 -142l-142 142q-14 -7 -25 -28q-9 -19 -17 -57t-8 -106h-170z" />
<glyph unicode="&#x2dc;" d="M-1000 1511v179h169v-90h455v-169h-544q-29 0 -45 11.5t-24 27.5q-9 18 -11 41z" />
<glyph unicode="&#xf710;" d="M-1000 1511v179h169v-90h455v-169h-544q-29 0 -45 11.5t-24 27.5q-9 18 -11 41z" />
<glyph unicode="&#xe01;" horiz-adv-x="1178" d="M113 0v929q37 69 81 117.5t91 80.5t93 51t85 28.5t68 11.5t44 2h11q89 -2 155.5 -22.5t117 -51.5t84.5 -70.5t57 -81t35.5 -82.5t18.5 -74t7 -56.5t1 -30.5v-751h-181v751q0 73 -19.5 122t-50 81t-67.5 49t-69.5 25.5t-57 10t-31.5 1.5q-55 0 -97 -12.5t-73 -33 t-51.5 -46.5t-34.5 -53q-32 -63 -36 -144v-751h-181z" />
<glyph unicode="&#xe02;" horiz-adv-x="1061" d="M79 1044v170h107q74 0 126 -20.5t87 -52t56 -71t31.5 -78.5t13.5 -72.5t3 -53.5q0 -6 -0.5 -10.5t-0.5 -6.5v-6q-4 -33 -17.5 -64t-29.5 -57q-18 -29 -39 -58q-52 -58 -81 -104.5t-43 -80t-17 -53t-3 -26.5q0 -62 16.5 -104.5t41.5 -69.5t54.5 -42.5t56.5 -22t46.5 -7.5 t26.5 -1q57 0 97 16t67.5 41.5t44.5 55.5t26 57.5t12 48.5t3 28v814h181v-814q0 -102 -29 -172.5t-73.5 -117t-97 -72.5t-100.5 -37.5t-84.5 -14.5t-46.5 -3q-106 0 -179.5 28.5t-121.5 72t-75 96t-39.5 99t-15.5 83t-3 47.5q0 60 17 107.5t43 86t56.5 70t57.5 60.5 t46.5 55.5t22.5 54.5q1 8 1 14v13q0 41 -13.5 69.5t-35.5 48t-48.5 30.5t-52.5 17t-48 7.5t-34 1.5h-13z" />
<glyph unicode="&#xe03;" horiz-adv-x="1148" d="M68 1097l121 115l95 -106l105 106l114 -120q21 -24 33.5 -56.5t19 -65t7.5 -61.5t1 -46v-21q-5 -33 -18.5 -64.5t-29.5 -57.5q-18 -30 -39 -57q-52 -58 -81 -104.5t-43 -80t-17 -53t-3 -26.5q0 -61 16.5 -103.5t41.5 -70t55 -42.5t56.5 -21.5t47 -7.5t26.5 -1 q56 0 96.5 16t67.5 41.5t44 55.5t26 57t12 48t3 28v813h181v-813q0 -102 -29 -172.5t-73 -117t-96.5 -72t-100.5 -37.5t-84.5 -14.5t-46.5 -2.5q-106 0 -180 28.5t-122 72t-75 95.5t-39.5 99t-15.5 83.5t-3 47.5q0 60 17 107t43 86t56.5 70.5t57.5 59.5t46.5 55t22.5 55 q2 7 2 13v13q0 26 -5.5 46.5t-14.5 36.5l-89 -81z" />
<glyph unicode="&#xe04;" horiz-adv-x="1174" d="M113 0v751q0 112 29.5 190.5t75 130.5t100.5 82t106.5 45t92.5 18t59 3h12q113 0 192.5 -29.5t132 -76t82.5 -102t45 -108t18.5 -94.5t3.5 -60v-11v-739h-181v739q0 57 -12 99.5t-33 74.5t-47.5 54t-54.5 35q-64 33 -146 38q-54 0 -94 -13t-70.5 -34.5t-52 -48 t-35.5 -55.5q-34 -66 -42 -150v-123q105 62 233 62q59 0 109 -14v-186q-22 11 -50 13t-59 2q-84 0 -146 -41q-32 -20 -53 -50t-34 -68v-334h-181z" />
<glyph unicode="&#xe05;" horiz-adv-x="1169" d="M113 0v879q14 124 84 214q70 89 178 130l213 -131l212 131q107 -41 180 -130q69 -87 82 -214v-879h-181v811q0 75 -26 129q-27 54 -72 85l-195 -127l-195 127q-47 -32 -73 -85q-26 -54 -26 -129v-195q105 62 234 62q58 0 109 -14v-186q-23 11 -51 13t-58 2 q-85 0 -146 -41q-33 -20 -54 -50t-34 -68v-334h-181z" />
<glyph unicode="&#xe06;" horiz-adv-x="1381" d="M0 1098l122 114l95 -106l104 106h181v-752q0 -5 1.5 -29.5t10 -58.5t26 -72.5t49 -71.5t80.5 -54t119 -21q6 0 31 1.5t58 10t69 26.5t66 52.5t49.5 87t19.5 129.5v752h181v-752v-15q0 -20 -3.5 -62t-17.5 -93.5t-41 -105.5t-75 -98.5t-120 -73.5t-174 -29h-43 q-77 6 -139 27q-26 9 -52 22.5t-46.5 33t-34 45t-14.5 59.5v-170h-181v976l-112 -106z" />
<glyph unicode="&#xe07;" horiz-adv-x="723" d="M2 114l122 119l19 -19t34 -26.5t52 -24t73 -10.5q26 0 45.5 7.5t35 20.5t25.5 30t17 34q16 41 19 94v705h-172v170h353v-875q0 -87 -22 -147.5t-55.5 -100t-73.5 -61.5t-76 -32t-63 -12.5t-33 -2.5q-78 0 -133.5 20.5t-92.5 45.5q-44 29 -74 65z" />
<glyph unicode="&#xe08;" horiz-adv-x="1078" d="M18 739v12q0 19 3.5 60t18.5 93.5t45 108.5t82.5 102t132 75.5t193.5 29.5h11q18 0 59.5 -3t92.5 -18t106.5 -44.5t101.5 -82t75 -131t29 -190.5v-751h-182v336q-12 36 -33 66.5t-54 50.5q-31 19 -66.5 30t-78.5 11q-32 0 -59.5 -2.5t-50.5 -13.5v186q49 14 110 14 q127 0 232 -62v123q-7 84 -41 150q-15 29 -36.5 55.5t-52 48t-71 34.5t-92.5 13q-83 -5 -147 -38q-27 -13 -53.5 -35t-47.5 -54t-33.5 -74.5t-12.5 -99.5h-181z" />
<glyph unicode="&#xe09;" horiz-adv-x="1247" d="M108 463v170h240v-174q0 -77 20 -129.5t49.5 -86.5t66 -52t69 -26.5t57 -10t31.5 -1.5q70 0 118.5 21t80 53.5t49 71t26 72.5t10.5 58.5t2 29.5v326q0 48 -12.5 84t-33.5 63t-47.5 45.5t-53.5 30.5q-65 28 -147 32h-15q-19 0 -56.5 -6.5t-78.5 -25.5t-78.5 -54.5 t-55.5 -95.5h-181q7 30 20.5 69t37.5 80t58.5 79t83.5 68t114.5 48t150.5 18q86 0 152 -18.5t115.5 -49.5t84.5 -70t58 -80q54 -95 64 -217v-785h-180v170q-3 -34 -16.5 -59.5t-33.5 -45t-45.5 -33t-51.5 -22.5q-62 -21 -139 -27h-42q-103 0 -174.5 29t-119.5 74t-75.5 100 t-41.5 108.5t-17.5 98.5t-3.5 70h-59z" />
<glyph unicode="&#xe0a;" horiz-adv-x="1083" d="M105 1043v169h107q74 0 126 -20t87 -51.5t56 -71.5t31.5 -79t13.5 -72t3 -54q0 -5 -0.5 -9.5t-0.5 -6.5v-6q-4 -33 -17.5 -64t-29.5 -57q-18 -29 -39 -58q-52 -58 -81 -104t-43 -79.5t-17 -53t-3 -26.5q0 -62 16.5 -104.5t41.5 -69.5t54.5 -42.5t56.5 -22t47 -7.5t27 -1 q56 0 96.5 16t67.5 41.5t44 55.5t26 57.5t12 48.5t3 28v384q0 115 -161 115h-59v141h59q81 0 121 35.5t40 103.5v33h181v-70q0 -137 -133 -170q61 -16 94 -53.5t39 -92.5v-426q0 -102 -29 -172.5t-73.5 -117t-97 -72.5t-100.5 -37.5t-84.5 -14.5t-46.5 -3 q-106 0 -179.5 28.5t-121.5 72t-75 96t-39.5 99t-15.5 83t-3 47.5q0 60 17 107t43 86t56.5 70.5t57.5 59.5t46.5 55t22.5 55q1 8 1 14v13q0 41 -13.5 69.5t-35.5 48t-48.5 30.5t-52.5 17t-48 7.5t-34 1.5h-13z" />
<glyph unicode="&#xe0b;" horiz-adv-x="1135" d="M53 1096l121 116l95 -107l105 107l114 -122q22 -23 34 -55.5t18.5 -65t7.5 -61.5t1 -46v-21q-4 -33 -17.5 -64.5t-29.5 -57.5q-18 -30 -40 -58q-52 -59 -80.5 -104.5t-43 -79t-17 -53t-2.5 -26.5q0 -61 16 -103.5t41 -69.5t55 -42t56.5 -21.5t47 -7.5t27.5 -1 q55 0 95.5 16t68 41t44 55t26 57.5t12 48t2.5 27.5v385q0 115 -160 115h-60v139h60q80 0 120 36t40 103v36h181v-71q0 -138 -132 -171q122 -32 132 -146v-426q0 -102 -29 -172.5t-73 -117t-96.5 -72t-100.5 -38t-84 -14.5t-46 -2q-107 0 -181 28t-122 71.5t-75 95.5 t-39.5 99.5t-15 84t-2.5 47.5q0 60 16.5 107t42.5 86t56.5 70.5t58 59.5t46.5 54.5t23 55.5q2 7 2 13v13q0 25 -6 45.5t-15 37.5l-89 -82z" />
<glyph unicode="&#xe0c;" horiz-adv-x="1930" d="M110 354v25v550q36 69 80.5 117.5t91.5 80.5t92.5 51t84.5 28.5t68.5 11.5t44.5 2h11q88 -2 155 -22.5t117 -51.5t84.5 -70.5t57 -81t35 -82.5t19 -74t7.5 -56.5t1 -30.5v-292q0 -5 1.5 -29.5t10 -58.5t26 -72.5t50 -71t81 -53.5t118.5 -21q7 0 31 1.5t56.5 10t68 26.5 t65.5 52t49.5 86.5t19.5 129.5v753h181v-753v-15q0 -20 -3.5 -62t-17 -93.5t-41 -105.5t-75 -98t-119.5 -73t-174 -29h-42q-77 6 -139 27q-26 9 -52 22.5t-46.5 33t-34 45t-14.5 59.5v-170h-181v751q0 73 -20 122t-50.5 81t-67 49t-69.5 25.5t-57 10t-31 1.5 q-55 0 -97 -12.5t-73 -33t-52 -46.5t-34 -53q-32 -63 -37 -144v-372q4 -60 26 -106q11 -19 25.5 -37.5t36 -33t51 -23.5t67.5 -9h132v-170h-243q-77 6 -138 44q-26 17 -50.5 42.5t-44 62.5t-31 87.5t-11.5 117.5z" />
<glyph unicode="&#xe0e;" horiz-adv-x="1242" d="M3 0v170h112v759q36 69 81 117.5t91.5 80.5t92.5 51t85 28.5t68.5 11.5t43.5 2h11q117 -3 198 -37t134 -83t82.5 -106t43 -108t16 -88.5t2.5 -46.5v-936q-3 -84 -37 -154q-15 -29 -37 -59t-54.5 -55t-76.5 -42.5t-103 -24.5l-146 134l-143 -134h-464v170h386l221 210 l13.5 -12.5t35 -32.5t46.5 -43t46.5 -43.5t36.5 -35t17 -15.5q4 0 17 12.5t26.5 32t24.5 44t11 48.5v936q0 73 -20 122t-50.5 81t-67 49t-69.5 25.5t-58 10t-31 1.5q-55 0 -96.5 -12.5t-72.5 -33t-52 -46.5t-35 -53q-31 -63 -36 -144v-751h-293z" />
<glyph unicode="&#xe0f;" horiz-adv-x="1221" d="M6 0v170h112v759q36 69 80.5 117.5t91.5 80.5t92.5 51t84.5 28.5t68.5 11.5t44.5 2h10q117 -3 198 -37t134 -83t82.5 -106t43 -108t16.5 -88.5t3 -46.5v-936q-4 -84 -38 -154q-14 -29 -36 -59t-55 -55t-77 -42.5t-103 -24.5l-131 115l-124 -115l-146 134l-143 -134h-197 v170h119l221 210l138 -129l129 129l183 -182q21 21 39 44q15 19 27.5 44t12.5 49v936q0 73 -20 122t-50.5 81t-67 49t-69.5 25.5t-57.5 10t-31.5 1.5q-54 0 -96 -12.5t-73 -33t-52 -46.5t-35 -53q-31 -63 -36 -144v-751h-292z" />
<glyph unicode="&#xe10;" horiz-adv-x="1230" d="M41 739v12q0 19 3 60t18.5 93.5t45.5 108.5t82.5 102t131.5 75.5t193 29.5h10q38 0 76.5 -5t82.5 -17q47 7 91 26q37 16 77 47.5t66 84.5l59 -59q12 -11 23 -22.5t21 -21t17 -15.5t10 -9q0 -9 -18.5 -31t-44.5 -46.5t-53 -47.5t-45 -32q45 -53 74.5 -130.5t29.5 -190.5 v-751h-182v336q-12 36 -33 66.5t-54 50.5q-32 19 -67.5 30t-78.5 11q-31 0 -59 -2t-50 -14v186q48 14 109 14q128 0 233 -62v123q-8 84 -42 150q-14 29 -35.5 55.5t-52 48t-71.5 34.5t-93 13q-82 -5 -147 -38q-27 -13 -53.5 -35t-47.5 -54t-33.5 -74.5t-12.5 -99.5h-180z M180 -262h118l222 210l139 -129l129 129l182 -182q21 22 39 44q15 19 27.5 44t12.5 49v97h180v-97q-3 -84 -37 -154q-15 -29 -37 -59t-54.5 -55t-76.5 -42.5t-103 -24.5l-131 116l-124 -116l-146 134l-144 -134h-196v170z" />
<glyph unicode="&#xe11;" horiz-adv-x="1435" d="M59 1098l122 114l95 -106l104 106h180v-169q2 33 15.5 58.5t33.5 44t46 31t52 21.5q63 20 141 22h41q103 0 175 -27.5t119.5 -71t75 -96.5t41 -103.5t17 -91.5t3.5 -62v-768h-181v754q0 71 -20 120t-49.5 80.5t-66 49.5t-69 25.5t-57 9t-31.5 1.5q-70 0 -118.5 -20 t-80 -50.5t-49 -66t-26 -67t-10.5 -55t-2 -27.5v-754h-180v976l-112 -106z" />
<glyph unicode="&#xe12;" horiz-adv-x="1925" d="M113 354v525q14 123 84 214q36 45 80 76.5t98 53.5l213 -131l212 131q54 -22 98 -53.5t81 -76.5q36 -45 55.5 -98t27.5 -116v-421q0 -5 2 -30t10.5 -58.5t26 -71.5t49.5 -70.5t80.5 -53.5t118.5 -21q7 0 31.5 1.5t57 9.5t68 26.5t65.5 52.5t50 86t20 129v754h181v-754 v-15q0 -20 -3.5 -62t-17.5 -93t-41.5 -105t-75.5 -98.5t-119.5 -73t-174.5 -28.5h-42q-77 6 -139 27q-26 9 -52 22.5t-46.5 33t-34 45t-14.5 59.5v-170h-181v811q0 74 -26 129q-26 52 -72 85l-195 -127l-195 127q-23 -17 -41.5 -37.5t-31.5 -47.5q-26 -55 -26 -129v-432 q3 -60 26 -106q10 -19 24.5 -37.5t35.5 -33t50.5 -23.5t67.5 -9h134v-170h-243q-77 6 -138 44q-26 17 -51 42.5t-44 62.5t-31 87.5t-12 117.5z" />
<glyph unicode="&#xe13;" horiz-adv-x="1943" d="M112 354v25v550q36 69 80.5 117.5t91.5 80.5t93 51.5t85 29t68 12t44 2.5h10q118 -4 198.5 -38t134 -83t82.5 -106.5t42.5 -108.5t16.5 -88.5t3 -46.5v-292q0 -77 20 -129.5t50 -86.5t65.5 -52t68 -26.5t57 -10t31.5 -1.5q70 0 118.5 21t80.5 53.5t49.5 71t26 72.5 t10.5 58.5t2 29.5v753h179v-1211h-179v169q-3 -34 -16.5 -59.5t-33.5 -45t-46 -33t-52 -22.5q-63 -20 -139 -26h-42q-103 0 -175 28.5t-120 73t-75 98.5t-41 105t-17.5 93t-3.5 62q0 15 1 15v292q0 73 -19.5 122t-50.5 81t-67.5 49t-69.5 25.5t-57.5 10t-31.5 1.5 q-54 0 -96 -12.5t-73 -33t-52 -46.5t-34 -53q-32 -63 -36 -144v-372q3 -60 26 -106q10 -19 24.5 -37.5t36 -33t51 -23.5t67.5 -9h133v-169h-243q-77 6 -138 44q-26 17 -51 42.5t-44 63t-31 87t-12 116.5z" />
<glyph unicode="&#xe14;" horiz-adv-x="1187" d="M81 365v398q11 108 44.5 184.5t80 126.5t99.5 79.5t103 43.5t89.5 18t58.5 4h16h14q20 0 59.5 -4t89 -18t103.5 -43.5t100 -79.5t80 -126.5t45 -184.5v-763h-180v763q-6 77 -41 138q-15 26 -37.5 50.5t-55.5 44.5t-76.5 32t-100.5 12q-58 0 -101.5 -12t-75.5 -32 t-54.5 -44.5t-37.5 -50.5q-35 -61 -41 -138v-398q5 -38 17 -73q10 -31 27.5 -62.5t47.5 -50.5q37 -26 73 -26q33 0 59 14.5t42 30.5l117 -120q-27 -27 -61 -47q-29 -19 -70.5 -33.5t-92.5 -14.5q-15 0 -32.5 1.5t-35.5 6.5q-66 16 -117 52.5t-85.5 87t-52 111t-17.5 123.5z " />
<glyph unicode="&#xe15;" horiz-adv-x="1178" d="M113 354v525q14 124 84 214q70 89 178 130l213 -131l212 131q107 -41 180 -130q35 -44 54.5 -97.5t27.5 -116.5v-879h-181v811q0 75 -26 129q-27 54 -72 85l-195 -127l-195 127q-47 -32 -73 -85q-26 -54 -26 -129v-432q3 -60 26 -106q10 -19 24.5 -37.5t35.5 -33 t50.5 -23.5t67.5 -9h134v-170h-243q-77 6 -138 44q-26 17 -51 42.5t-44 62.5t-31 87.5t-12 117.5z" />
<glyph unicode="&#xe16;" horiz-adv-x="1174" d="M113 0v929q37 69 81 117.5t91 80.5t93 51t85 28.5t68 11.5t44 2h11q89 -2 155.5 -22.5t117 -51.5t84.5 -70.5t57 -81t35.5 -82.5t18.5 -74t7 -56.5t1 -30.5v-751h-181v751q0 73 -19.5 122t-50 81t-67.5 49t-69.5 25.5t-57 10t-31.5 1.5q-55 0 -97 -12.5t-73 -33 t-51.5 -46.5t-34.5 -53q-32 -63 -36 -144v-581h112v-170h-293z" />
<glyph unicode="&#xe17;" horiz-adv-x="1174" d="M113 0v1212h181v-169q1 33 14.5 58.5t34 44t46.5 31t52 21.5q62 20 140 22h42q102 0 174 -27.5t119.5 -71t75 -96.5t41 -103.5t17 -91.5t3.5 -62v-14v-754h-181v754q0 71 -19.5 120t-49.5 80.5t-66 49.5t-69 25.5t-57.5 9t-30.5 1.5q-70 0 -119 -20t-80.5 -50.5t-49 -66 t-26 -67t-10 -55t-1.5 -27.5v-754h-181z" />
<glyph unicode="&#x2219;" horiz-adv-x="1174" d="M113 0v1212h181v-169q1 33 14.5 58.5t34 44t46.5 31t52 21.5q62 20 140 22h42q102 0 174 -27.5t119.5 -71t75 -96.5t41 -103.5t17 -91.5t3.5 -62v-14v-754h-181v754q0 71 -19.5 120t-49.5 80.5t-66 49.5t-69 25.5t-57.5 9t-30.5 1.5q-70 0 -119 -20t-80.5 -50.5t-49 -66 t-26 -67t-10 -55t-1.5 -27.5v-754h-181z" />
<glyph unicode="&#xe18;" horiz-adv-x="991" d="M103 105v281h181v-184q48 -21 105 -34.5t118 -13.5q57 0 102.5 14t78 40t49.5 61t17 78q0 44 -15 71.5t-34.5 43.5t-40 22t-31.5 9q-5 1 -37 6t-72.5 12t-81.5 13.5t-61 11.5q-14 2 -38.5 9.5t-54.5 21.5t-61.5 37t-56.5 58.5t-41 85t-16 114.5q0 98 35 166.5t91.5 111.5 t127.5 62.5t144 19.5q74 0 136 -17t107 -37q53 -22 95 -52l92 -63l-100 -151l-77 49q-28 19 -63 35t-71 28.5t-67.5 19.5t-51.5 7q-43 0 -81.5 -7.5t-68 -27.5t-47 -54t-17.5 -90q0 -55 30 -86t78 -48.5t108 -26.5t120 -20q60 -10 115 -40t97.5 -74t68 -100.5t25.5 -119.5 q0 -94 -34 -163t-92 -113.5t-136.5 -66t-166.5 -21.5q-77 0 -140.5 12t-114 30t-88.5 39.5t-64 40.5z" />
<glyph unicode="&#xe19;" horiz-adv-x="1183" d="M113 444v15v753h181v-753q0 -77 19.5 -129.5t49.5 -86.5t66.5 -52t69 -26.5t57 -10t30.5 -1.5q71 0 119.5 21t80 53.5t49 71t26 72.5t10 58.5t1.5 29.5v753h181v-1212h-181v170q-2 -34 -15.5 -59.5t-34 -45t-46 -33t-51.5 -22.5q-62 -21 -139 -27h-41q-103 0 -175 29 t-120 73t-75 98t-41 105.5t-17.5 93.5t-3.5 62z" />
<glyph unicode="&#xe1a;" horiz-adv-x="1178" d="M104 418v796h181v-796q0 -50 12.5 -88t33 -66t47.5 -47t54 -32q64 -29 147 -32q82 3 146 32q28 13 54.5 32t47.5 47t33 66t12 88v796h181v-796q-11 -123 -65 -218q-23 -41 -57.5 -80t-84 -69.5t-116 -49t-151.5 -18.5q-87 0 -153.5 18.5t-116 49t-84 69.5t-57.5 80 q-54 95 -64 218z" />
<glyph unicode="&#xe1b;" horiz-adv-x="1170" d="M104 409v796h181v-796q0 -49 12.5 -85.5t33 -63.5t47.5 -46t54 -30q64 -28 147 -31q82 3 146 31q28 11 54.5 30t47.5 46t33 63.5t12 85.5v1248h181v-1248q-11 -123 -65 -218q-23 -41 -57.5 -80t-84 -69.5t-116 -49t-151.5 -18.5q-87 0 -153.5 18.5t-116 49t-84 69.5 t-57.5 80q-54 95 -64 218z" />
<glyph unicode="&#xe1c;" horiz-adv-x="1326" d="M113 295v917h293v-169h-112v-679q0 -79 19 -122t45 -63t52 -23t39 -3h8q47 0 74 24.5t41 57.5t17.5 65.5t3.5 49.5v14v848h161v-848v-14q0 -17 4.5 -49.5t19 -65.5t42.5 -57.5t75 -24.5h9q12 0 37 3t49.5 23t43 63t18.5 122v848h181v-917q-9 -87 -49 -156 q-17 -29 -42.5 -57t-61 -50t-83 -35.5t-108.5 -13.5q-45 0 -84 12t-67.5 35t-45.5 58t-19 82q-1 -47 -18 -82t-46 -58t-68 -35t-84 -12q-61 0 -108.5 13.5t-83.5 35.5t-60.5 50t-41.5 57q-40 69 -50 156z" />
<glyph unicode="&#xe1d;" horiz-adv-x="1317" d="M108 295v917h293v-169h-112v-679q0 -79 19.5 -122t45.5 -63t52 -23t38 -3h8q47 0 74.5 24.5t41.5 57.5t17.5 65.5t3.5 49.5v14v848h160v-848v-14q0 -17 3.5 -49.5t17 -65.5t40.5 -57.5t75 -24.5h9q12 0 38 3t51.5 23t45 63t19.5 122v1286h180v-1355q-9 -87 -48 -156 q-17 -29 -42.5 -57t-61 -50t-83 -35.5t-108.5 -13.5q-45 0 -84 12t-68 35t-46 58t-18 82q-1 -47 -18 -82t-46.5 -58t-68.5 -35t-84 -12q-61 0 -108.5 13.5t-83 35.5t-60.5 50t-42 57q-39 69 -50 156z" />
<glyph unicode="&#xe1e;" horiz-adv-x="1331" d="M114 295v917h181v-847q0 -80 19 -123t45 -63t52 -23t39 -3h8q47 0 74 24.5t41.5 57.5t17.5 65.5t3 49.5v15v847h161v-847v-15q0 -17 4.5 -49.5t18.5 -65.5t42 -57.5t75 -24.5h9q12 0 37 3t50 23t43.5 63t18.5 123v847h181v-917q-9 -87 -49 -156q-17 -29 -42 -57t-61 -50 t-83.5 -35.5t-108.5 -13.5q-45 0 -84 12t-67.5 35.5t-45.5 58.5t-18 82q-2 -47 -18.5 -82t-46 -58.5t-68.5 -35.5t-84 -12q-61 0 -108.5 13.5t-83 35.5t-60.5 50t-42 57q-40 69 -50 156z" />
<glyph unicode="&#xe1f;" horiz-adv-x="1326" d="M115 295v917h181v-847q0 -80 20 -123t46 -63t52 -23t38 -3h8q47 0 74.5 24.5t41 57.5t17 65.5t3.5 49.5v15v847h160v-847v-15q0 -17 4 -49.5t18.5 -65.5t42 -57.5t74.5 -24.5h9q12 0 37.5 3t50.5 23t43.5 63t18.5 123v1285h181v-1355q-9 -87 -49 -156q-16 -29 -41.5 -57 t-61 -50t-83 -35.5t-108.5 -13.5q-46 0 -85 12t-67.5 35.5t-45.5 58.5t-18 82q-1 -47 -18 -82t-46.5 -58.5t-68.5 -35.5t-84 -12q-61 0 -108.5 13.5t-83 35.5t-60.5 50t-42 57q-40 69 -50 156z" />
<glyph unicode="&#xe20;" horiz-adv-x="1244" d="M70 0v170h112v759q36 69 80.5 117.5t91.5 80.5t93 51t85 28.5t68 11.5t44 2h11q118 -3 199 -37t133.5 -83t81.5 -106t42.5 -108t16.5 -88.5t3 -46.5v-751h-181v751q0 73 -19.5 122t-50 81t-67 49t-69 25.5t-57 10t-30.5 1.5q-56 0 -97.5 -12.5t-73 -33t-53 -46.5 t-34.5 -53q-33 -63 -36 -144v-751h-293z" />
<glyph unicode="&#xe21;" horiz-adv-x="1165" d="M113 0v1212h181v-753q0 -5 1.5 -29.5t10 -58.5t26 -72.5t49 -71t80.5 -53.5t119 -21q6 0 30.5 1.5t57.5 10t69 26.5t66 52t49.5 86.5t19.5 129.5v753h181v-753v-15q0 -20 -3.5 -62t-17.5 -93.5t-41 -105.5t-75 -98t-120 -73t-174 -29h-42q-77 6 -139 27q-26 9 -52 22.5 t-46.5 33t-34 45t-14.5 59.5v-170h-181z" />
<glyph unicode="&#xe22;" horiz-adv-x="1165" d="M49 861q0 66 12 116t33 87.5t47.5 63t55.5 42.5q65 38 149 42h242v-169h-145q-41 0 -71.5 -8t-52.5 -21t-37 -29.5t-25 -33.5q-23 -39 -26 -90q0 -45 14.5 -76t37 -51.5t49 -32t50.5 -16.5t41 -6t20 -1h145v-170h-145q-47 0 -80.5 -10.5t-55 -26.5t-33.5 -35t-17.5 -37 t-6.5 -31t-1 -18q0 -45 12 -76t31.5 -51t43 -31t45 -16t39 -5.5t24.5 -0.5h5h218q64 0 100 25.5t56 58.5q21 38 28 86v872h181v-872q0 -77 -23 -132t-58 -93t-77.5 -60.5t-82.5 -34.5t-71.5 -16t-44.5 -4h-226q-90 0 -153 18.5t-106 48.5t-68.5 67t-38.5 73t-17 67.5 t-4 50.5q0 73 26 121.5t59.5 79t63 45t35.5 17.5q-36 6 -63.5 21.5t-48 36.5t-34.5 44.5t-24 47.5q-23 55 -27 123z" />
<glyph unicode="&#xe23;" horiz-adv-x="960" d="M-2 160l120 118q21 -21 57 -44t82 -41t98.5 -29t107.5 -11q57 0 102.5 14t78 40t49.5 61t17 78q0 44 -15 71.5t-34.5 43.5t-40 22t-31.5 9q-5 1 -37 6t-73 11.5t-81.5 13.5t-60.5 11q-14 3 -39 10t-54.5 21.5t-61 37.5t-56.5 58.5t-41 85t-16 114.5q0 98 35 166.5 t91.5 111.5t127.5 62t144 19q74 0 135.5 -17t107.5 -36q53 -22 95 -52l92 -63l-100 -151l-77 49q-28 18 -63 34.5t-71 29t-67.5 19.5t-51.5 7q-43 0 -81.5 -7.5t-68 -27.5t-47 -54.5t-17.5 -89.5t30 -86t78 -48.5t108 -27t120 -19.5t115 -40t97.5 -74t68 -100.5t25.5 -119.5 q0 -94 -34 -163t-92 -113.5t-136.5 -66t-166.5 -21.5q-125 0 -212.5 27.5t-145.5 61.5q-66 39 -110 89z" />
<glyph unicode="&#xe24;" horiz-adv-x="1183" d="M113 0v929q37 69 81 117.5t91 80.5t93 51t85 28.5t68 11.5t44 2h11q89 -2 155.5 -22.5t117 -51.5t84.5 -70.5t57 -81t35.5 -82.5t18.5 -74t7 -56.5t1 -30.5v-1282h-181v1282q0 73 -19.5 122t-50 81t-67.5 49t-69.5 25.5t-57 10t-31.5 1.5q-55 0 -97 -12.5t-73 -33 t-51.5 -46.5t-34.5 -53q-32 -63 -36 -144v-581h112v-170h-293z" />
<glyph unicode="&#xe25;" horiz-adv-x="1091" d="M56 339q0 67 30 136t100 133q42 38 86 64.5t88.5 42t87 22.5t83.5 7q62 0 117 -12t94 -26q47 -17 86 -37v70q0 57 -12.5 99.5t-33 74.5t-47 54t-54.5 35q-64 33 -147 38q-73 0 -124 -26t-83.5 -64t-50 -79.5t-25.5 -71.5h-190q7 100 39 170.5t78 117t99 74t102 40.5 t88 16t56 3h11q113 0 193 -29.5t132.5 -76t82.5 -102t45 -108t18.5 -94.5t3.5 -60v-11v-739h-181v357q0 52 -23.5 87.5t-59 59t-77 36.5t-77 19t-59.5 7l-24 1q-3 0 -21.5 -1t-46.5 -7t-59.5 -18t-60 -34.5t-52 -57t-32.5 -84.5q-3 -16 -3 -29q0 -39 19 -66t48.5 -45 t66 -29.5t72.5 -17t65 -7t46 -1.5h16v-170h-203q-64 0 -119.5 27t-97.5 74t-66 108.5t-24 129.5z" />
<glyph unicode="&#xe26;" horiz-adv-x="1274" d="M40 0v170h111v759q37 69 81.5 117.5t91.5 80.5t92.5 51t84.5 28.5t68.5 11.5t44.5 2h11q117 -3 198 -37t133.5 -83t82 -106t43 -108t16.5 -88.5t3 -46.5v-1282h-181v1282q0 73 -20 122t-50.5 81t-67 49t-69.5 25.5t-57 10t-31 1.5q-55 0 -97 -12.5t-73 -33t-52 -46.5 t-35 -53q-31 -63 -36 -144v-751h-292z" />
<glyph unicode="&#xe27;" horiz-adv-x="978" d="M24 850q9 82 39 150.5t84.5 117t135.5 75.5t192 27h3h5q13 0 48 -3t79 -17t92 -41t87.5 -74t65.5 -117.5t26 -169.5v-402q-5 -117 -50 -207q-20 -39 -49 -76t-72 -66t-101.5 -46.5t-133.5 -17.5q-78 0 -137 18.5t-102.5 48.5t-73 68.5t-47.5 78.5q10 6 30.5 18t43 25.5 t43.5 25.5t32 18q20 -50 55 -76.5t70 -39.5q40 -14 86 -15q63 7 113 37q21 12 41.5 30t36 43t25.5 58t10 76v401q-6 66 -31 121q-11 22 -27.5 43.5t-39.5 38.5t-55 28t-73 11q-58 0 -100.5 -11t-73 -33.5t-53 -58.5t-41.5 -87h-183z" />
<glyph unicode="&#xe28;" horiz-adv-x="1195" d="M110 0v751q0 112 29 190.5t75 130.5t101 82t106 45t92.5 18t59.5 3h11q51 0 93.5 -5.5t79.5 -16.5q2 0 30 5t64.5 22t75.5 48t64 83q33 -32 60 -59l22.5 -22.5l21 -21t17 -15.5t9.5 -9q0 -9 -20.5 -32.5t-48 -50t-56 -49t-43.5 -28.5q37 -45 58.5 -95t31.5 -94t13 -79 t3 -51v-11v-739h-181v739q0 57 -12.5 99.5t-33.5 74.5t-47.5 54t-53.5 35q-64 33 -147 38q-53 0 -93 -13t-70.5 -34.5t-52 -48t-36.5 -55.5q-34 -66 -42 -150v-122q52 29 110.5 45t122.5 16q58 0 110 -12v-188q-23 11 -50.5 13t-59.5 2q-83 0 -146 -41q-31 -20 -52 -50 t-35 -68v-334h-180z" />
<glyph unicode="&#xe29;" horiz-adv-x="1235" d="M90 418v813h181v-813q0 -50 12.5 -88t33.5 -66t47.5 -47t53.5 -32q65 -29 147 -32q82 3 147 32q27 13 53.5 32t47.5 47t33.5 66t12.5 88v198h-213q-29 0 -45 12t-24 27q-9 18 -11 41v180h170v-91h123v446h181v-446h113v-169h-113v-198q-12 -123 -66 -218q-23 -41 -57 -80 t-84 -69.5t-116 -49t-152 -18.5q-87 0 -153 18.5t-116 49t-84.5 69.5t-56.5 80q-54 95 -65 218z" />
<glyph unicode="&#xe2a;" horiz-adv-x="1126" d="M71 339q0 67 30.5 136t100.5 133q42 38 86 64.5t88 42t87 22.5t84 7q62 0 117 -12t94 -26q47 -17 86 -37v70q0 57 -12.5 99.5t-33.5 74.5t-47.5 54t-53.5 35q-64 33 -147 38q-73 0 -124 -26t-83.5 -64t-51 -79.5t-25.5 -71.5h-190q6 100 38.5 170.5t78 117t99 74 t102.5 40.5t88 16t56 3h12q85 0 173 -23q48 6 92 27q37 17 76.5 48t65.5 85l60 -60l22.5 -22.5t21 -20.5t17 -15.5t9.5 -7.5q0 -6 -9 -19.5t-24.5 -30.5t-34.5 -35t-37.5 -34t-35 -28t-26.5 -15q36 -45 57 -95t31 -94t13 -79t3 -51v-11v-739h-180v357q0 52 -23.5 87.5 t-59.5 59t-77 36.5t-76.5 19t-60 7l-24.5 1q-3 0 -21.5 -1t-46 -7t-59 -18t-61 -34.5t-52.5 -57t-32 -84.5q-2 -8 -2 -15.5v-13.5q0 -39 19 -66t48.5 -45t66 -29.5t71.5 -17t65 -7t46 -1.5h17v-170h-205q-63 0 -119 27t-97 74t-65.5 108.5t-24.5 129.5z" />
<glyph unicode="&#xe2b;" horiz-adv-x="1159" d="M118 0v1215h180v-311h405q31 5 60 23q23 15 47 44.5t36 82.5v161h181v-178q0 -15 -6.5 -42.5t-20.5 -58.5t-33.5 -63t-45.5 -57q35 -32 63 -76q24 -37 44 -91.5t20 -123.5v-525h-181v525l-2.5 16t-8.5 39t-17.5 50.5t-29.5 51t-44 39t-62 15.5h-405v-736h-180z" />
<glyph unicode="&#xe2c;" horiz-adv-x="1326" d="M112 294v918h182v-847q0 -80 19 -123t44.5 -63t51.5 -23t38 -3h10q47 0 74 24.5t41 57.5t17.5 65.5t3.5 49.5v15v847h161v-847v-15q0 -17 3 -49.5t17 -65.5t41 -57.5t74 -24.5h8q13 0 39 3t52 23t45 63t19 123v857q0 115 -160 115h-60v140h60q79 0 119.5 35.5t40.5 103.5 v34h181v-70q0 -68 -34 -111.5t-98 -59.5q61 -16 93.5 -53t38.5 -93v-969q-10 -87 -50 -156q-17 -30 -42.5 -57.5t-61 -49.5t-82.5 -35t-108 -13q-45 0 -84 12t-67.5 35.5t-45.5 58.5t-19 82q-2 -47 -19 -82t-45.5 -58.5t-67.5 -35.5t-84 -12q-61 0 -108.5 13t-83.5 35 t-61 49.5t-42 57.5q-40 69 -50 156z" />
<glyph unicode="&#xe2d;" horiz-adv-x="1108" d="M97 418v245h339v-169h-158v-76q0 -50 12.5 -88t33.5 -66t47.5 -47t53.5 -32q64 -29 147 -32q82 3 147 32q27 13 53.5 32t47.5 47t33.5 66t12.5 88v367q0 48 -12.5 84t-33.5 63t-47.5 45.5t-53.5 30.5q-65 28 -147 32h-15q-19 0 -56.5 -6.5t-78.5 -25.5t-78.5 -54.5 t-55.5 -95.5h-181q7 30 20.5 69t37.5 80t58.5 79t83.5 68t114.5 48t150.5 18q86 0 152 -18.5t115.5 -49.5t84.5 -70t58 -80q54 -95 64 -217v-367q-10 -123 -64 -218q-23 -41 -58 -80t-84.5 -69.5t-115.5 -49t-152 -18.5q-87 0 -153 18.5t-116 49t-84.5 69.5t-56.5 80 q-55 95 -65 218z" />
<glyph unicode="&#xe2e;" horiz-adv-x="1152" d="M115 418v245h339v-169h-158v-76q0 -50 12.5 -88t33.5 -66t47.5 -47t53.5 -32q64 -29 147 -32q82 3 147 32q27 13 53.5 32t47.5 47t33.5 66t12.5 88v367q0 48 -12.5 84t-33.5 63t-47.5 45.5t-53.5 30.5q-65 28 -147 32h-15q-19 0 -56.5 -6.5t-78.5 -25.5t-78.5 -54.5 t-55.5 -95.5h-181q7 30 20.5 69t37.5 80t58.5 79t83.5 68t114.5 48t150.5 18q50 0 92 -6t78 -17q47 6 91 27q37 17 76.5 47.5t65.5 84.5q33 -32 61 -59q24 -22 45 -42.5t25 -25.5q0 -9 -19.5 -33t-47.5 -51t-56 -50t-44 -29q39 -48 61 -97.5t32 -90.5q12 -47 14 -93v-367 q-10 -123 -64 -218q-23 -41 -58 -80t-84.5 -69.5t-115.5 -49t-152 -18.5q-87 0 -153 18.5t-116 49t-84.5 69.5t-56.5 80q-55 95 -65 218z" />
<glyph unicode="&#xe2f;" horiz-adv-x="852" d="M80 1212h177q-2 -2 -2 -6v-17q0 -19 4.5 -48.5t19.5 -58t43.5 -48.5t78.5 -22h10q47 2 75 20t44 43.5t21.5 53.5t5.5 50q0 11 -0.5 17.5t-0.5 10.5v5h182v-1212h-181v873q-26 -12 -51 -18.5t-45 -10t-35 -4t-19 -0.5h-10q-13 0 -41 2.5t-63.5 14.5t-73 35.5t-68.5 65.5 t-51 103.5t-20 150.5z" />
<glyph unicode="&#xe30;" horiz-adv-x="616" d="M63 190v180h170v-91h317v-169h-406q-30 0 -46 11.5t-23 27.5q-9 18 -12 41zM63 925v180h170v-90h317v-170h-406q-30 0 -46 12t-23 28q-9 18 -12 40z" />
<glyph unicode="&#xe31;" d="M-650 1437v180h170v-90h454v-170h-544q-29 0 -45 12t-23 28q-9 18 -12 40z" />
<glyph unicode="&#xe32;" horiz-adv-x="743" d="M-12 1089q29 36 73 66q37 25 93 45t134 20q7 0 33.5 -1.5t62.5 -11t75.5 -31t73 -61t55.5 -100.5t22 -151v-864h-181v864q-2 49 -18 87q-6 17 -16.5 33t-25 28.5t-34.5 20t-46 7.5q-45 0 -76 -11t-51.5 -24.5t-32 -26.5t-17.5 -19z" />
<glyph unicode="&#xe33;" horiz-adv-x="781" d="M-649 1521q0 44 16.5 82.5t45.5 67.5t67.5 45t82.5 16t82.5 -16t67 -45t45.5 -67.5t17 -82.5t-17 -82.5t-45.5 -67.5t-67 -45t-82.5 -16t-82.5 16t-67.5 45t-45.5 67.5t-16.5 82.5zM-507 1521q0 -29 20 -49.5t50 -20.5q29 0 50 20.5t21 49.5t-21 49.5t-50 20.5 q-30 0 -50 -20.5t-20 -49.5zM28 1089q30 36 74 66q37 25 93 45t134 20q7 0 33.5 -2t62.5 -12t75.5 -32.5t73 -62t55.5 -100t22 -147.5v-864h-181v864q-2 49 -18 87q-7 17 -17 33t-24.5 28.5t-34.5 20t-46 7.5q-45 0 -76 -11t-51.5 -24.5t-32.5 -26.5t-17 -19z" />
<glyph unicode="&#xe34;" d="M-854 1356v173h675v-173h-675z" />
<glyph unicode="&#xe35;" d="M-931 1356v170h506v108h170v-278h-676z" />
<glyph unicode="&#xe36;" d="M-1060 1356v172h493q-3 10 -4 20t-1 20q0 43 16.5 81.5t45.5 67.5t68 46t83 17t82.5 -17t67 -46t45 -67.5t16.5 -81.5q0 -44 -17 -83t-46 -67.5t-67 -45t-81 -16.5h-701zM-431 1568q0 -29 21 -49.5t51 -20.5q29 0 49.5 20.5t20.5 49.5q0 30 -20.5 49.5t-49.5 19.5 q-30 0 -51 -19.5t-21 -49.5z" />
<glyph unicode="&#xe37;" d="M-901 1356v170h304v125h170v-125h100v125h170v-295h-744z" />
<glyph unicode="&#xe38;" d="M-420 -118h167q36 0 62 -26q26 -24 26 -61v-355h-169v273h-86v169z" />
<glyph unicode="&#xe39;" d="M-622 -92h143q33 0 52 -22q12 -9 17 -22.5t5 -28.5v-165h92v238h143v-308q0 -33 -22 -52q-19 -23 -51 -23h-232q-30 0 -52 23q-21 21 -21 52v165h-74v143z" />
<glyph unicode="&#xe3a;" d="M-348 -235q0 25 9.5 47t26 39t38.5 26.5t48 9.5q25 0 47 -9.5t39 -26.5t26.5 -39t9.5 -47q0 -26 -9.5 -48t-26.5 -38.5t-39 -26t-47 -9.5q-26 0 -48 9.5t-38.5 26t-26 38.5t-9.5 48z" />
<glyph unicode="&#xe3b;" d="M0 0v339h339v-339h-339z" />
<glyph unicode="&#xe3c;" />
<glyph unicode="&#xe3d;" />
<glyph unicode="&#xe3e;" />
<glyph unicode="&#xe3f;" horiz-adv-x="1379" d="M255 0v1401h326v202h181v-202h37q85 0 158.5 -30t128.5 -82.5t87 -124.5t32 -156q0 -95 -40.5 -173.5t-110.5 -136.5q70 -55 111 -125.5t41 -166.5q0 -84 -32.5 -158t-88.5 -129.5t-130 -87t-156 -31.5h-37v-203h-181v203h-326zM436 170h145v453h-145v-453zM436 786h145 v446h-145v-446zM762 170h38q46 0 87 19.5t71.5 52.5t48 75t17.5 89q0 45 -17 83.5t-47 67t-71 45.5t-89 21h-38v-453zM762 786h38q46 0 87 17t71.5 47t48 71t17.5 87t-18 87t-48.5 71.5t-71.5 48t-87 17.5h-37v-446z" />
<glyph unicode="&#xe40;" horiz-adv-x="413" d="M113 0v1212h183v-1212h-183z" />
<glyph unicode="&#xe41;" horiz-adv-x="769" d="M94 0v1212h183v-1212h-183zM473 0v1212h184v-1212h-184z" />
<glyph unicode="&#xe42;" horiz-adv-x="496" d="M-3 1662q0 54 13 116.5t46.5 116t91.5 89t147 35.5h463v-169h-419q-45 -4 -80 -24q-15 -9 -29 -22.5t-25.5 -33.5t-18 -47t-6.5 -62q0 -45 14 -72.5t38.5 -56t58.5 -67.5t75 -106q8 -18 15 -41q5 -21 10 -51t5 -68v-1200h-181v1229q0 35 -16.5 69.5t-40.5 69t-52.5 70 t-52.5 72t-40 75t-16 78.5z" />
<glyph unicode="&#xe43;" horiz-adv-x="548" d="M-131 1767v10q0 13 3.5 36t14.5 49.5t34 54.5t61 50.5t95 36.5t139 14q85 0 144 -18.5t98.5 -48.5t63 -67.5t34.5 -74.5t14 -70t3 -54v-22q0 -25 -4.5 -51.5t-17 -57t-35 -66t-57.5 -78.5q-33 -39 -50 -72.5t-26 -57.5q-10 -28 -11 -51v-1229h-181v1229q0 43 9.5 80 t27 69t42 61.5t52.5 57.5q28 29 45 51.5t26 41.5t12 37t3 37q0 47 -15.5 81.5t-42 57.5t-61.5 34.5t-73 11.5q-72 0 -111 -13.5t-58 -29.5q-20 -19 -23 -42h-154q-1 1 -1 3z" />
<glyph unicode="&#xe44;" horiz-adv-x="522" d="M-164 1900l113 105l76 -112l88 129q58 -7 101.5 -25.5t75.5 -44.5t54 -57t36 -61q32 -72 37 -160v-1674h-181v1674q0 23 -12.5 47.5t-26.5 43.5q-18 23 -40 45l-146 -144z" />
<glyph unicode="&#xe45;" horiz-adv-x="779" d="M46 1085q30 36 74 65q37 25 93 45.5t134 20.5q7 0 33.5 -2.5t62.5 -12.5t75.5 -32t73 -61.5t55.5 -100t22 -147.5v-1159h-181v1159q-3 42 -19 76q-14 28 -42 51.5t-80 23.5q-42 0 -73 -10.5t-52 -24t-34 -26.5t-18 -19z" />
<glyph unicode="&#xe46;" horiz-adv-x="1009" d="M29 770q0 108 21.5 183.5t53.5 125t69.5 76.5t71 40t58 15t29.5 2l111 -110l16 -16q47 47 73 72.5t38 37.5l14 14l2 2q5 0 28.5 -2t56.5 -14.5t70.5 -38.5t69.5 -73t54 -118.5t24 -175.5v-20v-1067h-180v1085q0 17 -3 46.5t-11 62t-22.5 62.5t-39.5 48l-174 -174 l-173 174q-27 -21 -42 -54t-22.5 -68t-9.5 -65t-2 -43v-7h-181z" />
<glyph unicode="&#xe47;" d="M-912 1591q0 77 27.5 126.5t63 78.5t68 40.5t42.5 11.5h514v-170h-514q-16 0 -26.5 -8t-17.5 -21t-10 -28t-3 -29q0 -16 4 -32t11 -29t17.5 -21.5t22.5 -8.5q18 0 29 9t16.5 21.5t7 26t1.5 23.5v13h139v-9q0 -9 2 -23t7.5 -27.5t16.5 -23.5t31 -10q19 0 29.5 9.5 t16.5 22.5t7.5 27t1.5 23v11h145q0 -71 -20 -116.5t-50 -73t-64.5 -38t-63.5 -10.5t-52.5 7t-40.5 16q-20 10 -35 23q-5 -4 -18 -12t-30.5 -15.5t-37.5 -13t-38 -5.5q-12 0 -31.5 2.5t-41.5 10t-44.5 23t-40.5 41.5t-29.5 64.5t-11.5 93.5z" />
<glyph unicode="&#xe48;" d="M-391 1820v344h170v-344h-170z" />
<glyph unicode="&#xe49;" d="M-762 2041v169h180q22 -2 40 -11q15 -8 27.5 -24.5t12.5 -44.5v-147h332v-169h-501v227h-91z" />
<glyph unicode="&#xe4a;" d="M-866 1759q0 63 11.5 128.5t41 120t81 93t131.5 45.5l97 -100l97 100q57 0 98 -19.5t70 -50.5t47.5 -70t28.5 -77h259v-170h-408q0 68 -8 106t-17 57q-11 22 -25 28l-142 -142l-142 142q-14 -6 -25 -28q-9 -19 -17 -57t-8 -106h-170z" />
<glyph unicode="&#xe4b;" d="M-580 1919v169h116v117h169v-117h116v-169h-116v-116h-169v116h-116z" />
<glyph unicode="&#xe4c;" d="M-424 1809v180q1 21 12 39q7 16 23.5 28.5t46.5 12.5h397v-169h-309v-91h-170z" />
<glyph unicode="&#xe4d;" d="M-894 1521q0 44 16.5 82.5t45.5 67.5t67 45t82 16q45 0 83 -16t67 -45t46 -67.5t17 -82.5t-17 -82.5t-46 -67.5t-67 -45t-83 -16q-44 0 -82 16t-67 45t-45.5 67.5t-16.5 82.5zM-753 1521q0 -29 20.5 -49.5t49.5 -20.5q30 0 51 20.5t21 49.5t-21 49.5t-51 20.5 q-29 0 -49.5 -20.5t-20.5 -49.5z" />
<glyph unicode="&#xe4e;" />
<glyph unicode="&#xe4f;" horiz-adv-x="974" d="M106 484q0 79 30.5 148.5t82 121t120.5 80.5t147 29q77 0 146 -28.5t121.5 -79.5t83.5 -120.5t31 -150.5q0 -79 -30 -148.5t-81.5 -121t-121.5 -81t-149 -29.5t-148 30t-120.5 81.5t-81.5 120.5t-30 148zM162 484q0 -66 24.5 -124.5t67.5 -103.5t102.5 -71t129.5 -26 q69 0 129 26t102.5 71t67.5 103.5t25 124.5t-26 125.5t-70 103.5t-102.5 69.5t-125.5 25.5t-126 -25.5t-103.5 -69.5t-69.5 -103.5t-25 -125.5zM254 484q0 48 18 90.5t49.5 73.5t73.5 49t91 18q48 0 91 -18t75 -49t50 -73.5t18 -90.5q0 -49 -18 -91.5t-50 -73.5t-75 -49 t-91 -18q-49 0 -91 18t-73.5 49t-49.5 73.5t-18 91.5z" />
<glyph unicode="&#xe50;" horiz-adv-x="1117" d="M90 418v367q11 122 65 217q22 41 56.5 80t84.5 70t116 49.5t153 18.5q86 0 152 -18.5t116 -49.5t85 -70t57 -80q54 -95 65 -217v-367q-11 -123 -65 -218q-22 -41 -57 -80t-85 -69.5t-116 -49t-152 -18.5q-87 0 -153 18.5t-116 49t-84.5 69.5t-56.5 80q-54 95 -65 218z M271 418q0 -50 12.5 -88t33.5 -66t47.5 -47t53.5 -32q65 -29 147 -32q82 3 147 32q27 13 53.5 32t47.5 47t33.5 66t12.5 88v367q0 48 -12.5 84t-33.5 63t-47.5 45.5t-53.5 30.5q-65 28 -147 32q-82 -4 -147 -32q-27 -12 -53.5 -30.5t-47.5 -45.5t-33.5 -63t-12.5 -84v-367z " />
<glyph unicode="&#xe51;" horiz-adv-x="1194" d="M121 763v22q10 122 64 217q23 41 57.5 80t84 70t115.5 49.5t154 18.5q85 0 151.5 -18.5t116 -49.5t84.5 -70t58 -80q54 -95 64 -217v-368q-11 -122 -65 -217q-23 -41 -58 -80t-85 -69.5t-116 -49t-152 -18.5t-152.5 18.5t-115.5 49t-83.5 70t-57 80.5t-35.5 80t-20 69 h178q8 -37 25 -65t39 -49t47 -36t50 -24q58 -21 127 -25q82 4 146 33q28 13 54.5 32t47 46.5t33 66t12.5 88.5v368q0 48 -12.5 84t-33 63t-47 45.5t-54.5 30.5q-64 28 -146 32q-83 -4 -147 -32q-28 -12 -54.5 -30.5t-47 -45.5t-33 -63t-12.5 -84v-22q2 -21 11 -51.5 t30.5 -59t58 -49t96.5 -20.5h130v-165h-237q-76 6 -136 43q-26 16 -49.5 41t-42.5 61.5t-30.5 85.5t-11.5 114z" />
<glyph unicode="&#xe52;" horiz-adv-x="1418" d="M115 353v1116h181v-1116q3 -21 13 -52.5t32.5 -60.5t61 -49.5t99.5 -20.5h421q61 0 99.5 20.5t61 49.5t32 60.5t13.5 52.5v456q0 75 -26 129q-27 54 -72 85l-196 -127l-194 127q-48 -32 -74 -85q-26 -54 -26 -129v-107h-181v175q14 124 84 213q70 90 179 130l212 -131 l213 131q107 -40 179 -130q69 -87 83 -213v-524q0 -67 -12 -117t-31 -87t-44 -62.5t-51 -42.5q-61 -38 -138 -44h-643q-77 6 -138 44q-26 17 -51 42.5t-44 62.5t-31 87t-12 117z" />
<glyph unicode="&#xe53;" horiz-adv-x="1409" d="M107 407v395q0 47 9 90.5t29 80.5q38 79 101 132q64 53 151 83q41 13 84.5 20.5t88.5 11.5l235 -134l227 134q26 -9 50.5 -23t48.5 -30q23 -19 42 -37.5t38 -41.5q16 -22 29.5 -46t26.5 -52q9 -28 15.5 -56.5t11.5 -61.5v-872h-181v808q0 38 -7.5 68t-19.5 59t-31 49.5 t-41 38.5l-209 -130l-235 138q-38 0 -75 -8.5t-71.5 -27t-63 -45t-46.5 -62.5q-13 -22 -19.5 -50t-6.5 -57v-352q0 -56 22.5 -110.5t70.5 -90.5q40 -30 86.5 -44t102.5 -14h226v-170h-226q-48 3 -88.5 7.5t-78.5 15t-74.5 28.5t-75.5 50q-33 27 -60 59t-46 73 q-40 74 -40 174z" />
<glyph unicode="&#xe54;" horiz-adv-x="1308" d="M51 408v395q0 47 9 90.5t28 80.5q39 79 102 132t150 83q41 12 81 17.5t87 5.5h294q43 0 76 15t56 38.5t39 52.5t26 58t15 53.5t8 39.5h194q-1 -71 -18 -144t-52.5 -134t-91 -101.5t-133.5 -46.5h-408q-37 0 -74.5 -10.5t-72 -30.5t-62.5 -48.5t-46 -64.5q-14 -22 -20 -50 t-6 -57v-351q0 -65 25 -116q24 -49 68 -81q38 -33 85.5 -48.5t102.5 -15.5h205q-24 0 -49.5 27t-46 65.5t-33.5 81t-13 75.5v170h391v-170h-212q8 -47 25 -82t39 -61.5t46.5 -45t49.5 -29.5q58 -28 127 -31h174v-170h-703q-47 5 -88 9.5t-79 14.5t-74.5 28t-74.5 50 q-33 27 -60 59t-47 73q-39 74 -39 174z" />
<glyph unicode="&#xe55;" horiz-adv-x="1339" d="M66 408v395q0 47 9 90.5t28 81.5q19 37 44 70.5t58 60.5q63 53 150 83q11 3 21 6t22 5q-16 41 -16 83t16.5 80.5t45 67.5t67 45.5t82.5 16.5t82.5 -16.5t67.5 -45.5t46 -67.5t17 -80.5q0 -20 -3 -37.5t-9 -33.5h23q43 0 75.5 15t56 38.5t39 52.5t26 58t15.5 53.5t7 39.5 h195q-2 -71 -18.5 -144t-52.5 -133.5t-91 -101t-133 -47.5h-408q-38 0 -75 -10.5t-71.5 -30.5t-63 -48.5t-46.5 -64.5q-13 -22 -19.5 -50t-6.5 -57v-351q0 -65 25 -116q25 -49 69 -81q37 -33 84.5 -48.5t103.5 -15.5h204q-23 0 -48.5 27t-46 65.5t-33.5 81t-13 75.5v170h391 v-170h-212q7 -47 24 -82t39 -61.5t47 -45t50 -29.5q58 -28 127 -31h174v-170h-703q-48 5 -88.5 9.5t-78.5 14.5t-74.5 28t-75.5 50q-32 27 -59.5 59t-46.5 73q-39 74 -39 174zM523 1283q0 -28 16.5 -47t42.5 -24h24q25 5 41.5 24t16.5 47q0 29 -20.5 48.5t-50.5 19.5 q-29 0 -49.5 -19.5t-20.5 -48.5z" />
<glyph unicode="&#xe56;" horiz-adv-x="1300" d="M66 1287v182q65 0 115.5 -12t87.5 -31t62.5 -44t42.5 -51q38 -61 44 -138v-66q53 41 127.5 67t178.5 26q86 0 152 -18.5t116 -49.5t85 -70t58 -80q54 -95 64 -217v-367q-10 -123 -64 -218q-23 -41 -58 -80t-85 -69.5t-116 -49t-152 -18.5q-87 0 -153.5 18.5t-117.5 49.5 t-86.5 70t-59 80.5t-37 80.5t-20.5 69v163h400v-163h-213q8 -37 25 -65t39 -49t47 -36t50 -24q57 -21 126 -24q83 3 147 32q27 13 53.5 32t47.5 47t33.5 66t12.5 88v367q0 48 -12.5 84t-33.5 63t-47.5 45.5t-53.5 30.5q-64 28 -147 32q-82 -4 -147 -32q-27 -12 -53.5 -30.5 t-47.5 -45.5t-33 -63t-12 -84v-21h-181v290q0 81 -18 126t-45.5 67.5t-60 29.5t-60.5 10z" />
<glyph unicode="&#xe57;" horiz-adv-x="1726" d="M108 406v396q0 46 9.5 90t28.5 81t44 71t57 61q33 27 70.5 47t80.5 34q43 15 86 22.5t88 10.5l234 -133l228 133q26 -9 51 -23t47 -30q23 -19 42 -37t38 -41q16 -24 30.5 -47.5t26.5 -50.5q9 -30 15 -57.5t12 -60.5v-702q51 0 80 28.5t42 63.5q16 41 20 93v1114h180 v-1114q0 -87 -22 -147t-55.5 -99.5t-73 -61.5t-75.5 -32t-62.5 -12.5t-33.5 -2.5h-182v807q0 38 -6.5 68.5t-20.5 57.5q-12 30 -31 50t-41 39l-209 -129l-234 136q-38 0 -75.5 -8.5t-71.5 -26.5t-63 -44.5t-47 -62.5q-13 -23 -19.5 -50t-6.5 -56v-353q0 -56 22.5 -110.5 t71.5 -90.5q40 -30 86.5 -43.5t102.5 -13.5h225v-170h-225q-48 3 -89 7t-78.5 14.5t-74 28.5t-76.5 51q-33 26 -60.5 58t-46.5 72q-19 39 -29 83t-10 92z" />
<glyph unicode="&#xe58;" horiz-adv-x="1371" d="M113 332v529q0 66 12 116t31 87t43.5 62t50.5 42q61 39 138 44h510q65 0 106 32t65.5 75t34.5 86t14 65h194q-1 -71 -18.5 -144t-53 -134t-91 -101.5t-133.5 -47.5h-518q-61 0 -99.5 -21t-61 -49.5t-32 -60t-12.5 -51.5v-464q0 -40 7 -69.5t20 -57.5q12 -29 31 -49.5 t42 -38.5l208 130l235 -138q37 0 75 8.5t72 26.5t63 44.5t47 62.5q11 18 16.5 40.5t8.5 46.5h-211v170h391v-171q0 -46 -8.5 -89.5t-27.5 -80.5q-38 -78 -103 -133q-62 -53 -150 -82q-41 -14 -85 -21t-88 -13l-235 136l-226 -136q-27 10 -52 24t-47 30q-24 19 -43 38t-39 41 q-15 23 -29 46t-26 53q-9 28 -16 56t-10 61z" />
<glyph unicode="&#xe59;" horiz-adv-x="1612" d="M111 418v397q0 48 9 92t29 82q19 40 47 72.5t61 59.5q37 30 71.5 48.5t70.5 28.5t74.5 14.5t82.5 7.5h45q48 -3 88.5 -7.5t78.5 -14.5t74 -28.5t76 -49.5l28 -26t27 -27q23 28 55 53q39 31 75 49.5t74 28.5t78.5 14.5t88.5 7.5h35q43 0 75.5 15t55.5 38.5t39 52.5 t26 57.5t15.5 53.5t7.5 40h194q-1 -71 -18 -144t-52.5 -134t-91 -101.5t-133.5 -46.5h-153q-56 0 -102 -14t-86 -45q-47 -36 -70 -90t-23 -111v-791h-180v791q0 57 -23 111t-70 90q-80 60 -189 60h-45q-57 -1 -96 -15.5t-76 -43.5q-47 -36 -69.5 -90t-22.5 -111v-351 q0 -31 5.5 -58.5t18.5 -50.5q18 -36 46.5 -62.5t63 -44.5t71.5 -26.5t75 -8.5v-190q-43 6 -87 12.5t-85 20.5q-44 14 -81.5 34.5t-69.5 47.5q-33 27 -58 60.5t-44 70.5q-19 39 -27.5 82.5t-8.5 89.5z" />
<glyph unicode="&#xe5a;" horiz-adv-x="870" d="M98 1214h177q-2 -3 -2 -7v-17q0 -19 4.5 -48.5t19.5 -58t44 -48.5t78 -21h10q47 1 75 19t44 43.5t21.5 53.5t5.5 50q0 11 -0.5 18t-0.5 10v6h182v-1213h-181v874q-26 -13 -51 -19.5t-45 -10t-35 -4t-19 -0.5h-10q-13 0 -41 2.5t-63.5 14.5t-73 36t-68.5 65.5t-51 103 t-20 151.5z" />
<glyph unicode="&#xe5b;" />
<glyph unicode="&#x2000;" horiz-adv-x="1140" />
<glyph unicode="&#x2001;" horiz-adv-x="2281" />
<glyph unicode="&#x2002;" horiz-adv-x="1140" />
<glyph unicode="&#x2003;" horiz-adv-x="2281" />
<glyph unicode="&#x2004;" horiz-adv-x="760" />
<glyph unicode="&#x2005;" horiz-adv-x="570" />
<glyph unicode="&#x2006;" horiz-adv-x="380" />
<glyph unicode="&#x2007;" horiz-adv-x="380" />
<glyph unicode="&#x2008;" horiz-adv-x="285" />
<glyph unicode="&#x2009;" horiz-adv-x="456" />
<glyph unicode="&#x200a;" horiz-adv-x="126" />
<glyph unicode="&#x200b;" />
<glyph unicode="&#x2010;" horiz-adv-x="936" d="M76 531v170h762v-170h-762z" />
<glyph unicode="&#x2011;" horiz-adv-x="936" d="M76 531v170h762v-170h-762z" />
<glyph unicode="&#x2012;" horiz-adv-x="936" d="M76 531v170h762v-170h-762z" />
<glyph unicode="&#x2013;" horiz-adv-x="968" d="M76 512v169h809v-169h-809z" />
<glyph unicode="&#x2014;" horiz-adv-x="965" d="M76 512v169h809v-169h-809z" />
<glyph unicode="&#x2018;" horiz-adv-x="455" d="M80 1040q-2 58 14 104t40.5 80.5t55 58t58.5 39.5t49 23.5t27 9.5q10 2 16.5 -1t9.5 -8q5 -6 6 -16q4 -21 -6 -34q-4 -6 -11 -10q-46 -23 -73.5 -44.5t-41 -38.5t-17.5 -28.5t-4 -13.5q25 0 47.5 -10t39.5 -26t27 -38.5t10 -46.5q0 -25 -10 -47t-27 -38.5t-39.5 -26 t-47.5 -9.5q-26 0 -48 9.5t-38 26t-26 38.5t-11 47z" />
<glyph unicode="&#x2019;" horiz-adv-x="446" d="M103 982q2 8 7 14q4 5 11 10q46 22 73 43.5t41 38.5t18 29t4 14q-26 0 -48.5 9.5t-39 26t-26.5 38.5t-10 47t10 47t26.5 38.5t39 26t48.5 9.5q24 0 47 -9.5t39 -26t26 -38.5t11 -47q1 -59 -14.5 -104.5t-40 -80t-55 -58.5t-58.5 -39.5t-49 -23t-27 -9.5q-11 -4 -17 -0.5 t-9 9.5q-5 5 -6 16q-3 12 -1 20z" />
<glyph unicode="&#x201a;" d="M-1248 1349v170h507v108h169v-278h-676z" />
<glyph unicode="&#xf702;" d="M-1248 1349v170h507v108h169v-278h-676z" />
<glyph unicode="&#x201e;" d="M-1083 1431v169h304v126h170v-126h101v126h169v-295h-744z" />
<glyph unicode="&#xf704;" d="M-1083 1431v169h304v126h170v-126h101v126h169v-295h-744z" />
<glyph unicode="&#x2020;" d="M-643 1356v344h170v-344h-170z" />
<glyph unicode="&#xf705;" d="M-643 1356v344h170v-344h-170z" />
<glyph unicode="&#x2021;" d="M-1044 1579v169h180q21 -2 39 -11q16 -8 28.5 -24.5t12.5 -44.5v-147h332v-170h-502v228h-90z" />
<glyph unicode="&#xf706;" d="M-1044 1579v169h180q21 -2 39 -11q16 -8 28.5 -24.5t12.5 -44.5v-147h332v-170h-502v228h-90z" />
<glyph unicode="&#x2022;" horiz-adv-x="793" d="M106 440q0 58 23.5 111.5t63.5 92.5t92.5 62t110.5 23t111 -23t92 -62t62.5 -92.5t23.5 -111.5t-23.5 -110.5t-62.5 -92.5t-92 -63.5t-111 -23.5q-59 0 -111.5 23.5t-92 62.5t-63 91.5t-23.5 112.5z" />
<glyph unicode="&#x2026;" horiz-adv-x="1219" d="M106 55q0 26 19.5 44.5t44.5 18.5t43.5 -18.5t18.5 -44.5q0 -22 -18.5 -41t-43.5 -19t-44.5 19t-19.5 41zM548 55q0 26 18.5 44.5t44.5 18.5q23 0 42.5 -18.5t19.5 -44.5q0 -22 -18 -41t-44 -19t-44.5 19t-18.5 41zM988 55q0 26 19 44.5t44 18.5q26 0 44 -18.5t18 -44.5 q0 -22 -18 -41t-44 -19q-25 0 -44 19t-19 41z" />
<glyph unicode="&#x202f;" horiz-adv-x="456" />
<glyph unicode="&#x2030;" d="M-773 1472v170h115v116h170v-116h116v-170h-116v-115h-170v115h-115z" />
<glyph unicode="&#xf708;" d="M-773 1472v170h115v116h170v-116h116v-170h-116v-115h-170v115h-115z" />
<glyph unicode="&#x2039;" d="M-410 1357v344h169v-344h-169z" />
<glyph unicode="&#xf70a;" d="M-410 1357v344h169v-344h-169z" />
<glyph unicode="&#x203a;" d="M-672 1887v344h169v-344h-169z" />
<glyph unicode="&#xf713;" d="M-672 1887v344h169v-344h-169z" />
<glyph unicode="&#x205f;" horiz-adv-x="570" />
<glyph unicode="&#x20ac;" horiz-adv-x="1254" d="M94 739v12q0 19 3.5 60t18.5 93.5t45 108.5t82.5 102t131.5 75.5t193 29.5h11q37 0 75.5 -5t82.5 -17q47 7 91 26q38 16 77.5 47.5t65.5 84.5q32 -32 60 -59q11 -11 22 -22.5t21 -21t17 -15.5t10 -9q0 -9 -18.5 -31t-44.5 -46.5t-53 -47.5t-45 -32q45 -53 74.5 -130.5 t29.5 -190.5v-751h-182v336q-12 36 -33 66.5t-54 50.5q-31 19 -67 30t-79 11q-64 0 -109 -24v194q48 14 109 14q128 0 233 -62v123q-8 77 -42 139q-14 26 -35.5 51t-52 44.5t-71.5 31.5t-93 12q-82 -6 -147 -36q-27 -14 -53.5 -33.5t-47.5 -49t-33 -69t-12 -90.5h-181z" />
<glyph unicode="&#xf700;" horiz-adv-x="1254" d="M94 739v12q0 19 3.5 60t18.5 93.5t45 108.5t82.5 102t131.5 75.5t193 29.5h11q37 0 75.5 -5t82.5 -17q47 7 91 26q38 16 77.5 47.5t65.5 84.5q32 -32 60 -59q11 -11 22 -22.5t21 -21t17 -15.5t10 -9q0 -9 -18.5 -31t-44.5 -46.5t-53 -47.5t-45 -32q45 -53 74.5 -130.5 t29.5 -190.5v-751h-182v336q-12 36 -33 66.5t-54 50.5q-31 19 -67 30t-79 11q-64 0 -109 -24v194q48 14 109 14q128 0 233 -62v123q-8 77 -42 139q-14 26 -35.5 51t-52 44.5t-71.5 31.5t-93 12q-82 -6 -147 -36q-27 -14 -53.5 -33.5t-47.5 -49t-33 -69t-12 -90.5h-181z" />
<glyph unicode="&#x2122;" d="M-796 1521q0 44 16.5 82.5t45.5 67.5t67.5 45t82.5 16t82.5 -16t67 -45t45.5 -67.5t17 -82.5t-17 -82.5t-45.5 -67.5t-67 -45t-82.5 -16t-82.5 16t-67.5 45t-45.5 67.5t-16.5 82.5zM-654 1521q0 -29 20 -49.5t50 -20.5q29 0 50 20.5t21 49.5t-21 49.5t-50 20.5 q-30 0 -50 -20.5t-20 -49.5z" />
<glyph unicode="&#xf711;" d="M-796 1521q0 44 16.5 82.5t45.5 67.5t67.5 45t82.5 16t82.5 -16t67 -45t45.5 -67.5t17 -82.5t-17 -82.5t-45.5 -67.5t-67 -45t-82.5 -16t-82.5 16t-67.5 45t-45.5 67.5t-16.5 82.5zM-654 1521q0 -29 20 -49.5t50 -20.5q29 0 50 20.5t21 49.5t-21 49.5t-50 20.5 q-30 0 -50 -20.5t-20 -49.5z" />
<glyph unicode="&#x25cc;" />
<glyph unicode="&#xe000;" horiz-adv-x="1062" d="M0 0v1062h1062v-1062h-1062z" />
<glyph unicode="&#xf701;" d="M-1083 1347v173h676v-173h-676z" />
<glyph unicode="&#xf70c;" d="M-1014 1357q0 62 11.5 127.5t41 120.5t81 93.5t131.5 45.5l97 -100l97 100q57 0 98 -19.5t70 -50.5t47.5 -70t28.5 -77h259v-170h-408q0 68 -8 106t-17 57q-11 21 -25 28l-142 -142l-142 142q-14 -7 -25 -28q-9 -19 -17 -57t-8 -106h-170z" />
<glyph unicode="&#xf70e;" d="M-590 1362v179q1 22 11 40q8 16 24.5 28.5t46.5 12.5h397v-170h-309v-90h-170z" />
<glyph unicode="&#xf715;" d="M-1186 1829q0 63 11 128.5t40.5 120t81 93t131.5 45.5l97 -100l97 100q57 0 98 -19t70 -50.5t47.5 -70.5t28.5 -77h127v-170h-276q0 68 -8 106t-17 57q-11 22 -25 28l-142 -142l-142 142q-14 -6 -25 -28q-9 -19 -17 -57t-8 -106h-169z" />
<glyph unicode="&#xf718;" d="M-420 -622h167q36 0 62 -25t26 -62v-355h-169v273h-86v169z" />
<glyph unicode="&#xf719;" d="M-620 -622h142q33 0 52 -22q12 -9 17.5 -22.5t5.5 -28.5v-165h91v238h144v-308q0 -33 -23 -52q-19 -23 -51 -23h-231q-31 0 -52 23q-22 22 -22 52v165h-73v143z" />
<glyph unicode="&#xf71a;" d="M-357 -744q0 25 9.5 47t26 39t38.5 26.5t48 9.5q25 0 47 -9.5t39 -26.5t26.5 -39t9.5 -47q0 -26 -9.5 -48t-26.5 -38t-39 -26t-47 -10q-26 0 -48 10t-38.5 26t-26 38t-9.5 48z" />
<glyph horiz-adv-x="1925" d="M113 353v24v551q37 69 81 117.5t90.5 81t92.5 51.5t85 28.5t68.5 11.5t44.5 2h8q118 -3 199 -37t134.5 -83t82.5 -106.5t42.5 -108.5t16.5 -88.5t3 -46.5v-332q0 -45 12.5 -79.5t33 -60t47 -43t53.5 -28.5q64 -27 147 -32q82 5 147 32q27 11 53.5 28.5t47.5 43t33.5 60 t12.5 79.5v796h181v-796q-11 -123 -65 -218q-24 -41 -58.5 -80t-84 -69.5t-115.5 -49t-152 -18.5t-152 18.5t-116 49t-84.5 69.5t-56.5 80q-55 95 -66 218v332q0 68 -19.5 115.5t-50 78t-67.5 48t-69.5 25.5t-57.5 9.5t-32 1.5q-54 0 -96 -11.5t-73 -31.5t-52 -45t-34 -51 q-32 -62 -36 -139v-373q3 -59 26 -105q10 -19 24.5 -37.5t36.5 -33.5t51.5 -24t68.5 -9h130v-168h-241q-77 6 -138 44q-26 17 -50.5 42.5t-43.5 62.5t-31 87t-12 117z" />
<glyph horiz-adv-x="1311" d="M113 294v747h182v-676q0 -70 19 -109t44.5 -59t51.5 -24.5t39 -4.5h9q47 0 74 22t41.5 52t17.5 60.5t3 47.5v15v411h161v-411v-15q0 -17 3.5 -47.5t17 -60.5t40.5 -52t74 -22h8q13 0 39 4.5t52 24.5t45 59t19 109v420q0 116 -160 116h-60v140h60q79 0 119.5 35.5 t40.5 103.5v32h181v-68q0 -68 -34 -111.5t-98 -59.5q61 -16 93.5 -53t38.5 -93v-533q-10 -87 -50 -156q-17 -30 -42.5 -57.5t-61 -49.5t-82.5 -35t-108 -13q-45 0 -84 12t-67.5 35.5t-45.5 58.5t-18 82q-3 -47 -20 -82t-45.5 -58.5t-67.5 -35.5t-84 -12q-61 0 -108.5 13 t-83 35t-61 49.5t-42.5 57.5q-40 69 -50 156z" />
<glyph horiz-adv-x="1099" d="M-399 1521q0 44 16.5 82.5t45.5 67.5t67 45t82 16t82.5 -16t67.5 -45t46 -67.5t17 -82.5t-17 -82.5t-46 -67.5t-67.5 -45t-82.5 -16t-82 16t-67 45t-45.5 67.5t-16.5 82.5zM-270 1520q0 -34 24.5 -58.5t57.5 -24.5q35 0 59 24.5t24 58.5q0 35 -24 59t-59 24 q-33 0 -57.5 -24t-24.5 -59zM281 1089q30 36 74 66q37 25 93 45t134 20q7 0 33.5 -2t62.5 -12t75.5 -32.5t73 -62t55.5 -100t22 -147.5v-864h-181v864q-2 49 -18 87q-7 17 -17 33t-24.5 28.5t-34.5 20t-46 7.5q-45 0 -76 -11t-51.5 -24.5t-32.5 -26.5t-17 -19z" />
<glyph />
<glyph />
<glyph horiz-adv-x="2122" d="M215 578q4 33 21.5 62.5t50.5 43.5q8 3 20.5 6t29.5 3q18 0 41 -4t42 -23q23 -23 26 -39t4 -20h-49q-7 24 -24.5 33.5t-38.5 9.5q-23 0 -44 -15q-13 -10 -19.5 -26.5t-9 -34t0 -34t7.5 -27.5q8 -16 22.5 -30t36.5 -16q14 -1 30.5 4t28.5 19q10 13 12 22t3 15h-59v43h103 v-138h-32l-7 31q-4 -5 -11 -12.5t-17 -13.5t-23.5 -10t-32.5 -3q-35 2 -50.5 12.5t-24.5 20.5q-23 21 -32 54.5t-5 66.5zM487 433v149h38v-28h2q2 5 4.5 10.5t13.5 11.5q5 5 11.5 7.5t15.5 1.5v-40q-13 1 -27.5 -1.5t-19.5 -27.5v-83h-38zM577 472q2 16 10.5 29.5t34.5 18.5 q11 0 21 2t17 5q10 3 10 17q0 13 -26 13q-16 0 -20.5 -8t-4.5 -17h-36q0 18 7 29t16.5 16t19.5 6.5t18 1.5q13 0 22 -1.5t14 -3.5q12 -6 19.5 -15.5t7.5 -27.5v-82q-1 -5 2 -9.5t6 -8.5v-4h-40q-5 4 -5 14q-10 -10 -20 -15.5t-27 -5.5q-48 0 -46 46zM617 470q2 -6 8 -10.5 t18 -1.5q17 3 22 13t5 23v9q-9 -6 -18.5 -6t-17.5 -2q-9 -2 -14 -9t-3 -16zM740 372v210h40v-23q8 11 14 17.5t25 8.5q16 1 26 -5.5t16 -12.5q10 -11 16 -27.5t6.5 -34.5t-5 -34.5t-15.5 -27.5q-10 -9 -19 -13t-25 -4t-23 6t-16 15v-75h-40zM780 504q0 -9 1.5 -17t3.5 -12 q6 -9 13 -13t13 -4q7 0 14 4t12 13q3 4 5 12t2 17t-2 17t-5 12q-5 9 -12 13t-14 4q-6 0 -13 -4t-13 -13q-2 -4 -3.5 -12t-1.5 -17zM904 431v203h40v-72q5 9 15.5 15.5t21.5 6.5q26 0 41.5 -12t15.5 -41v-100h-38v89q0 10 -4.5 19.5t-23.5 9.5q-18 0 -23 -8t-5 -17v-93h-40z M1058 572v11h26h27q7 1 13 1h13v-143h24v-10h-102v10h25v131h-26zM1081 645q0 12 8.5 19.5t20.5 7.5q10 0 18.5 -7.5t8.5 -19.5q0 -11 -8 -19t-19 -8q-12 0 -20.5 8t-8.5 19zM1166 573v11h24v47h24q8 0 15 1.5t15 2.5v-51h31v-11h-31v-107q0 -6 0.5 -13.5t9.5 -7.5 q12 0 15 8t6 17l11 -2q-6 -24 -21 -33.5t-39 -9.5q-27 0 -31.5 10t-4.5 25v113h-24zM1292 572v11h27h26q6 1 13 1h14v-107q0 -16 1 -26t14 -10q7 0 14.5 4.5t12.5 11t8 14t3 12.5v89h-27v11h27h26q7 1 13.5 1h13.5v-143h25v-10h-25q-7 0 -13.5 -1t-13.5 -2t-13.5 -1.5 t-12.5 -0.5v34h-1q-7 -19 -23.5 -27t-35.5 -8q-18 0 -27.5 4t-13.5 11t-4.5 18.5t-0.5 25.5v88h-27zM1512 501q0 22 8 38t19.5 26t25.5 15t24 5q13 0 25 -7t18 -20h1v120h-31v11h31q13 0 26 1.5t27 2.5v-252h21v-10h-74v21q-20 -27 -50 -27q-15 0 -28 6.5t-22.5 17.5 t-15 24.5t-5.5 27.5zM1572 455q0 -9 4.5 -15t13.5 -6q18 0 30.5 14.5t12.5 32.5v47q0 19 -12 33t-28 14q-9 0 -15 -4.5t-6 -13.5v-102zM1707 504q0 19 8 34.5t20.5 25.5t29 15.5t32.5 5.5q29 0 52 -18.5t23 -47.5q0 -7 -6.5 -7.5t-11.5 -0.5h-84v-49q0 -28 31 -28 q23 0 40 11.5t22 33.5l9 -2q-8 -27 -27.5 -39.5t-46.5 -12.5q-36 0 -63.5 19.5t-27.5 59.5zM1770 521h50v37q0 17 -27 17q-23 0 -23 -18v-36zM1887 457q0 12 9.5 21.5t22.5 9.5q12 0 21.5 -9.5t9.5 -21.5q0 -14 -9.5 -23t-21.5 -9q-13 0 -22.5 9.5t-9.5 22.5z" />
<glyph horiz-adv-x="1878" d="M76 353v24v550q36 69 80.5 117.5t91.5 81t92.5 52t84.5 29t68.5 11.5t44.5 2h10q88 -2 155.5 -22.5t117 -52t84.5 -71t57.5 -81.5t35 -82.5t19 -74.5t7.5 -57t1 -30v-291q0 -77 19.5 -129.5t49.5 -86.5t66 -52t68.5 -26.5t57 -10.5t30.5 -2q71 0 119.5 21.5t80.5 54 t49.5 71t26 72t10 58.5t1.5 30v753h180v-1212q0 -87 -22 -147.5t-55.5 -100t-73.5 -61.5t-76 -32.5t-62.5 -12.5t-33.5 -2q-78 0 -133.5 20.5t-92.5 44.5q-44 30 -73 66l109 105l19 -19t34 -26.5t52 -24t73 -10.5q26 0 46 8.5t36 22.5t28 31.5t19 36.5q20 44 26 101v169 q-2 -34 -15.5 -59t-34 -44.5t-46.5 -33t-52 -22.5q-62 -20 -139 -26h-41q-103 0 -175 28.5t-120 73t-75 98.5t-41 105t-17.5 93t-3.5 62q0 15 1 15v291q0 73 -19.5 122.5t-51 81.5t-67.5 49t-69.5 25.5t-57.5 9.5t-31 1q-54 0 -96 -12t-73 -32.5t-52 -46.5t-34 -53 q-32 -63 -36 -145v-372q3 -59 25 -105q11 -19 25.5 -37.5t36 -33.5t51 -24t67.5 -9h132v-168h-243q-76 6 -137 44q-26 17 -51 42.5t-44.5 62.5t-31 87t-11.5 117z" />
</font>
</defs>
</svg>
